G04 #@! TF.GenerationSoftware,KiCad,Pcbnew,(6.0.10)*
G04 #@! TF.CreationDate,2023-02-04T17:17:42+01:00*
G04 #@! TF.ProjectId,Lumissil_IS31FL3742A_breakout,4c756d69-7373-4696-9c5f-49533331464c,rev?*
G04 #@! TF.SameCoordinates,Original*
G04 #@! TF.FileFunction,Copper,L1,Top*
G04 #@! TF.FilePolarity,Positive*
%FSLAX46Y46*%
G04 Gerber Fmt 4.6, Leading zero omitted, Abs format (unit mm)*
G04 Created by KiCad (PCBNEW (6.0.10)) date 2023-02-04 17:17:42*
%MOMM*%
%LPD*%
G01*
G04 APERTURE LIST*
G04 Aperture macros list*
%AMRoundRect*
0 Rectangle with rounded corners*
0 $1 Rounding radius*
0 $2 $3 $4 $5 $6 $7 $8 $9 X,Y pos of 4 corners*
0 Add a 4 corners polygon primitive as box body*
4,1,4,$2,$3,$4,$5,$6,$7,$8,$9,$2,$3,0*
0 Add four circle primitives for the rounded corners*
1,1,$1+$1,$2,$3*
1,1,$1+$1,$4,$5*
1,1,$1+$1,$6,$7*
1,1,$1+$1,$8,$9*
0 Add four rect primitives between the rounded corners*
20,1,$1+$1,$2,$3,$4,$5,0*
20,1,$1+$1,$4,$5,$6,$7,0*
20,1,$1+$1,$6,$7,$8,$9,0*
20,1,$1+$1,$8,$9,$2,$3,0*%
%AMRotRect*
0 Rectangle, with rotation*
0 The origin of the aperture is its center*
0 $1 length*
0 $2 width*
0 $3 Rotation angle, in degrees counterclockwise*
0 Add horizontal line*
21,1,$1,$2,0,0,$3*%
G04 Aperture macros list end*
G04 #@! TA.AperFunction,SMDPad,CuDef*
%ADD10RoundRect,0.250000X-0.450000X0.262500X-0.450000X-0.262500X0.450000X-0.262500X0.450000X0.262500X0*%
G04 #@! TD*
G04 #@! TA.AperFunction,SMDPad,CuDef*
%ADD11RoundRect,0.225000X0.250000X-0.225000X0.250000X0.225000X-0.250000X0.225000X-0.250000X-0.225000X0*%
G04 #@! TD*
G04 #@! TA.AperFunction,ComponentPad*
%ADD12C,1.350000*%
G04 #@! TD*
G04 #@! TA.AperFunction,ComponentPad*
%ADD13O,1.350000X1.350000*%
G04 #@! TD*
G04 #@! TA.AperFunction,SMDPad,CuDef*
%ADD14RoundRect,0.250000X0.132583X-0.503814X0.503814X-0.132583X-0.132583X0.503814X-0.503814X0.132583X0*%
G04 #@! TD*
G04 #@! TA.AperFunction,SMDPad,CuDef*
%ADD15RoundRect,0.050000X0.229810X0.300520X-0.300520X-0.229810X-0.229810X-0.300520X0.300520X0.229810X0*%
G04 #@! TD*
G04 #@! TA.AperFunction,SMDPad,CuDef*
%ADD16RoundRect,0.050000X-0.229810X0.300520X-0.300520X0.229810X0.229810X-0.300520X0.300520X-0.229810X0*%
G04 #@! TD*
G04 #@! TA.AperFunction,ComponentPad*
%ADD17C,0.500000*%
G04 #@! TD*
G04 #@! TA.AperFunction,SMDPad,CuDef*
%ADD18RotRect,4.200000X4.200000X225.000000*%
G04 #@! TD*
G04 #@! TA.AperFunction,SMDPad,CuDef*
%ADD19RoundRect,0.250000X-0.132583X0.503814X-0.503814X0.132583X0.132583X-0.503814X0.503814X-0.132583X0*%
G04 #@! TD*
G04 #@! TA.AperFunction,SMDPad,CuDef*
%ADD20RoundRect,0.225000X0.017678X-0.335876X0.335876X-0.017678X-0.017678X0.335876X-0.335876X0.017678X0*%
G04 #@! TD*
G04 #@! TA.AperFunction,SMDPad,CuDef*
%ADD21RoundRect,0.225000X-0.017678X0.335876X-0.335876X0.017678X0.017678X-0.335876X0.335876X-0.017678X0*%
G04 #@! TD*
G04 #@! TA.AperFunction,ViaPad*
%ADD22C,0.500000*%
G04 #@! TD*
G04 #@! TA.AperFunction,Conductor*
%ADD23C,0.400000*%
G04 #@! TD*
G04 #@! TA.AperFunction,Conductor*
%ADD24C,0.200000*%
G04 #@! TD*
G04 #@! TA.AperFunction,Conductor*
%ADD25C,0.600000*%
G04 #@! TD*
G04 APERTURE END LIST*
D10*
X83000000Y-50587500D03*
X83000000Y-52412500D03*
X117000000Y-50587500D03*
X117000000Y-52412500D03*
D11*
X91230000Y-37975000D03*
X91230000Y-36425000D03*
D12*
X121000000Y-36500000D03*
D13*
X121000000Y-38500000D03*
X121000000Y-40500000D03*
X121000000Y-42500000D03*
X121000000Y-44500000D03*
X121000000Y-46500000D03*
D11*
X92756666Y-37975000D03*
X92756666Y-36425000D03*
D14*
X102954765Y-43505235D03*
X104245235Y-42214765D03*
D10*
X85000000Y-50587500D03*
X85000000Y-52412500D03*
D14*
X100694765Y-41215235D03*
X101985235Y-39924765D03*
D12*
X63000000Y-54500000D03*
D13*
X65000000Y-54500000D03*
X67000000Y-54500000D03*
X69000000Y-54500000D03*
X71000000Y-54500000D03*
X73000000Y-54500000D03*
X75000000Y-54500000D03*
X77000000Y-54500000D03*
X79000000Y-54500000D03*
X81000000Y-54500000D03*
X83000000Y-54500000D03*
X85000000Y-54500000D03*
X87000000Y-54500000D03*
X89000000Y-54500000D03*
X91000000Y-54500000D03*
X93000000Y-54500000D03*
X95000000Y-54500000D03*
X97000000Y-54500000D03*
X99000000Y-54500000D03*
X101000000Y-54500000D03*
X103000000Y-54500000D03*
X105000000Y-54500000D03*
X107000000Y-54500000D03*
X109000000Y-54500000D03*
X111000000Y-54500000D03*
X113000000Y-54500000D03*
X115000000Y-54500000D03*
X117000000Y-54500000D03*
X119000000Y-54500000D03*
X121000000Y-54500000D03*
D10*
X115000000Y-50587500D03*
X115000000Y-52412500D03*
X107000000Y-50587500D03*
X107000000Y-52412500D03*
X105000000Y-50587500D03*
X105000000Y-52412500D03*
X75000000Y-50587500D03*
X75000000Y-52412500D03*
D15*
X95641600Y-43469670D03*
X95358757Y-43186827D03*
X95075914Y-42903984D03*
X94793072Y-42621142D03*
X94510229Y-42338299D03*
X94227386Y-42055456D03*
X93944544Y-41772614D03*
X93661701Y-41489771D03*
X93378858Y-41206928D03*
X93096016Y-40924086D03*
X92813173Y-40641243D03*
X92530330Y-40358400D03*
D16*
X91469670Y-40358400D03*
X91186827Y-40641243D03*
X90903984Y-40924086D03*
X90621142Y-41206928D03*
X90338299Y-41489771D03*
X90055456Y-41772614D03*
X89772614Y-42055456D03*
X89489771Y-42338299D03*
X89206928Y-42621142D03*
X88924086Y-42903984D03*
X88641243Y-43186827D03*
X88358400Y-43469670D03*
D15*
X88358400Y-44530330D03*
X88641243Y-44813173D03*
X88924086Y-45096016D03*
X89206928Y-45378858D03*
X89489771Y-45661701D03*
X89772614Y-45944544D03*
X90055456Y-46227386D03*
X90338299Y-46510229D03*
X90621142Y-46793072D03*
X90903984Y-47075914D03*
X91186827Y-47358757D03*
X91469670Y-47641600D03*
D16*
X92530330Y-47641600D03*
X92813173Y-47358757D03*
X93096016Y-47075914D03*
X93378858Y-46793072D03*
X93661701Y-46510229D03*
X93944544Y-46227386D03*
X94227386Y-45944544D03*
X94510229Y-45661701D03*
X94793072Y-45378858D03*
X95075914Y-45096016D03*
X95358757Y-44813173D03*
X95641600Y-44530330D03*
D17*
X93484924Y-43257538D03*
X94227386Y-44000000D03*
X91257538Y-42515076D03*
X92742462Y-44000000D03*
X93484924Y-44742462D03*
X92742462Y-42515076D03*
X90515076Y-44742462D03*
X92742462Y-45484924D03*
X92000000Y-44742462D03*
X90515076Y-43257538D03*
X92000000Y-41772614D03*
X89772614Y-44000000D03*
X91257538Y-44000000D03*
X91257538Y-45484924D03*
X92000000Y-46227386D03*
D18*
X92000000Y-44000000D03*
D17*
X92000000Y-43257538D03*
D14*
X98044765Y-38675235D03*
X99335235Y-37384765D03*
D19*
X106760470Y-39699530D03*
X105470000Y-40990000D03*
D14*
X103199765Y-38675235D03*
X104490235Y-37384765D03*
D10*
X95000000Y-50587500D03*
X95000000Y-52412500D03*
D20*
X100719492Y-38578008D03*
X101815508Y-37481992D03*
D10*
X89000000Y-50587500D03*
X89000000Y-52412500D03*
X93000000Y-50587500D03*
X93000000Y-52412500D03*
D11*
X95810000Y-37975000D03*
X95810000Y-36425000D03*
D10*
X69000000Y-50587500D03*
X69000000Y-52412500D03*
X99000000Y-50587500D03*
X99000000Y-52412500D03*
X91000000Y-50587500D03*
X91000000Y-52412500D03*
X87000000Y-50587500D03*
X87000000Y-52412500D03*
X101000000Y-50587500D03*
X101000000Y-52412500D03*
X109000000Y-50587500D03*
X109000000Y-52412500D03*
X111000000Y-50587500D03*
X111000000Y-52412500D03*
D21*
X83798008Y-42701992D03*
X82701992Y-43798008D03*
D10*
X71000000Y-50587500D03*
X71000000Y-52412500D03*
X67000000Y-50587500D03*
X67000000Y-52412500D03*
X81000000Y-50587500D03*
X81000000Y-52412500D03*
X65000000Y-50587500D03*
X65000000Y-52412500D03*
X97000000Y-50587500D03*
X97000000Y-52412500D03*
X79000000Y-50587500D03*
X79000000Y-52412500D03*
D11*
X94283332Y-37975000D03*
X94283332Y-36425000D03*
D10*
X121000000Y-50587500D03*
X121000000Y-52412500D03*
X73000000Y-50587500D03*
X73000000Y-52412500D03*
D12*
X63000000Y-36500000D03*
D13*
X63000000Y-38500000D03*
X63000000Y-40500000D03*
X63000000Y-42500000D03*
X63000000Y-44500000D03*
X63000000Y-46500000D03*
D10*
X119000000Y-50587500D03*
X119000000Y-52412500D03*
D21*
X82698008Y-41601992D03*
X81601992Y-42698008D03*
D10*
X63000000Y-50587500D03*
X63000000Y-52412500D03*
X113000000Y-50587500D03*
X113000000Y-52412500D03*
X77000000Y-50587500D03*
X77000000Y-52412500D03*
X103000000Y-50587500D03*
X103000000Y-52412500D03*
D22*
X115700000Y-37029000D03*
X100120000Y-42160500D03*
X102100000Y-44330000D03*
X107750000Y-40750000D03*
X95040000Y-38760000D03*
X83750000Y-40929009D03*
X91250000Y-38750000D03*
X114940000Y-43190000D03*
X81920000Y-44580000D03*
X100290000Y-36490000D03*
X105500000Y-36500000D03*
X87972002Y-47522002D03*
X97681728Y-39805469D03*
X102610000Y-36660000D03*
X80820000Y-43480000D03*
X97610000Y-43830000D03*
X90000000Y-37000000D03*
X97000000Y-37000000D03*
X107500000Y-38000000D03*
X99130000Y-40160000D03*
X99006444Y-41933556D03*
D23*
X95810000Y-38490000D02*
X95810000Y-37975000D01*
X95540000Y-38760000D02*
X95810000Y-38490000D01*
X95040000Y-38760000D02*
X95540000Y-38760000D01*
X92756666Y-36425000D02*
X91230000Y-36425000D01*
X95810000Y-36425000D02*
X94283332Y-36425000D01*
X94283332Y-37975000D02*
X95810000Y-37975000D01*
X92736666Y-37995000D02*
X92756666Y-37975000D01*
X91250000Y-37995000D02*
X92736666Y-37995000D01*
X83370991Y-40929009D02*
X82698008Y-41601992D01*
X83750000Y-40929009D02*
X83370991Y-40929009D01*
D24*
X85720491Y-40779509D02*
X83798008Y-42701992D01*
X91250000Y-37995000D02*
X91230000Y-37975000D01*
D25*
X91250000Y-38750000D02*
X91250000Y-37995000D01*
D24*
X115700000Y-37029000D02*
X115700000Y-42430000D01*
X89772614Y-42055456D02*
X88496667Y-40779509D01*
X100694765Y-41215235D02*
X100120000Y-41790000D01*
X88496667Y-40779509D02*
X85720491Y-40779509D01*
X106760470Y-39760470D02*
X106760470Y-39699530D01*
X93000000Y-38218334D02*
X93000000Y-39888730D01*
X93000000Y-39888730D02*
X92530330Y-40358400D01*
X102924765Y-43505235D02*
X102954765Y-43505235D01*
X100120000Y-41790000D02*
X100120000Y-42160500D01*
X115700000Y-42430000D02*
X114940000Y-43190000D01*
X102100000Y-44330000D02*
X102924765Y-43505235D01*
X94283332Y-37975000D02*
X94283332Y-39171084D01*
X94283332Y-39171084D02*
X92813173Y-40641243D01*
X92756666Y-37975000D02*
X93000000Y-38218334D01*
X107750000Y-40750000D02*
X106760470Y-39760470D01*
D25*
X82698008Y-41601992D02*
X83798008Y-42701992D01*
D24*
X99335235Y-37384765D02*
X99395235Y-37384765D01*
X101815508Y-37481992D02*
X101815508Y-37454492D01*
X88195156Y-47522002D02*
X89772614Y-45944544D01*
X81601992Y-42698008D02*
X80820000Y-43480000D01*
X91230000Y-36425000D02*
X90575000Y-36425000D01*
X97681728Y-39805469D02*
X94780317Y-39805469D01*
X99395235Y-37384765D02*
X100290000Y-36490000D01*
X95641600Y-43469670D02*
X95941270Y-43170000D01*
X94780317Y-39805469D02*
X93378858Y-41206928D01*
X90575000Y-36425000D02*
X90000000Y-37000000D01*
X97610000Y-43450000D02*
X97610000Y-43830000D01*
X101815508Y-37454492D02*
X102610000Y-36660000D01*
X104490235Y-37384765D02*
X104615235Y-37384765D01*
X104615235Y-37384765D02*
X105500000Y-36500000D01*
X96425000Y-36425000D02*
X95810000Y-36425000D01*
X95941270Y-43170000D02*
X97330000Y-43170000D01*
X82701992Y-43798008D02*
X81920000Y-44580000D01*
X97000000Y-37000000D02*
X96425000Y-36425000D01*
X97330000Y-43170000D02*
X97610000Y-43450000D01*
X87972002Y-47522002D02*
X88195156Y-47522002D01*
X103102538Y-38578008D02*
X103199765Y-38675235D01*
X93661701Y-41489771D02*
X94946003Y-40205469D01*
X94946003Y-40205469D02*
X97303910Y-40205469D01*
X107578628Y-35900000D02*
X120400000Y-35900000D01*
X104803393Y-38675235D02*
X107578628Y-35900000D01*
X99811992Y-38578008D02*
X100719492Y-38578008D01*
X100719492Y-38578008D02*
X103102538Y-38578008D01*
X97303910Y-40205469D02*
X97453910Y-40355469D01*
X97453910Y-40355469D02*
X98034531Y-40355469D01*
X120400000Y-35900000D02*
X121000000Y-36500000D01*
X98034531Y-40355469D02*
X99811992Y-38578008D01*
X103199765Y-38675235D02*
X104803393Y-38675235D01*
X120025000Y-41475000D02*
X121000000Y-40500000D01*
X104250000Y-40360000D02*
X106640000Y-37970000D01*
X108655000Y-44175000D02*
X109981616Y-44175000D01*
X103540000Y-41070000D02*
X104250000Y-40360000D01*
X99020706Y-41170000D02*
X99556444Y-41705738D01*
X94227386Y-42055456D02*
X95112843Y-41170000D01*
X102770001Y-41070000D02*
X103540000Y-41070000D01*
X120027728Y-42906586D02*
X120025000Y-42903859D01*
X99790000Y-42710000D02*
X101130000Y-42710000D01*
X101130000Y-42710000D02*
X102770001Y-41070000D01*
X109981616Y-44175000D02*
X110556616Y-44750000D01*
X105470000Y-40990000D02*
X108655000Y-44175000D01*
X107470000Y-37970000D02*
X107500000Y-38000000D01*
X110556616Y-44750000D02*
X118184314Y-44750000D01*
X99556444Y-42476444D02*
X99790000Y-42710000D01*
X95112843Y-41170000D02*
X99020706Y-41170000D01*
X99556444Y-41705738D02*
X99556444Y-42476444D01*
X104840000Y-40360000D02*
X105470000Y-40990000D01*
X104250000Y-40360000D02*
X104840000Y-40360000D01*
X106640000Y-37970000D02*
X107470000Y-37970000D01*
X120025000Y-42903859D02*
X120025000Y-41475000D01*
X118184314Y-44750000D02*
X120027728Y-42906586D01*
X94947158Y-40770000D02*
X98600000Y-40770000D01*
X118800000Y-36300000D02*
X107744314Y-36300000D01*
X107744314Y-36300000D02*
X104119549Y-39924765D01*
X93944544Y-41772614D02*
X94947158Y-40770000D01*
X100230000Y-39850000D02*
X101910470Y-39850000D01*
X104119549Y-39924765D02*
X101985235Y-39924765D01*
X121000000Y-38500000D02*
X118800000Y-36300000D01*
X98600000Y-40690000D02*
X99130000Y-40160000D01*
X101910470Y-39850000D02*
X101985235Y-39924765D01*
X98600000Y-40770000D02*
X99310000Y-40770000D01*
X99310000Y-40770000D02*
X100230000Y-39850000D01*
X98600000Y-40770000D02*
X98600000Y-40690000D01*
X98175686Y-41970000D02*
X99315686Y-43110000D01*
X118350000Y-45150000D02*
X121000000Y-42500000D01*
X106605470Y-44575000D02*
X109815930Y-44575000D01*
X104245235Y-42214765D02*
X106605470Y-44575000D01*
X95444214Y-41970000D02*
X98175686Y-41970000D01*
X103500470Y-41470000D02*
X104245235Y-42214765D01*
X94793072Y-42621142D02*
X95444214Y-41970000D01*
X102935686Y-41470000D02*
X103500470Y-41470000D01*
X110390930Y-45150000D02*
X118350000Y-45150000D01*
X99315686Y-43110000D02*
X101295686Y-43110000D01*
X101295686Y-43110000D02*
X102935686Y-41470000D01*
X109815930Y-44575000D02*
X110390930Y-45150000D01*
X89490777Y-38379509D02*
X64879509Y-38379509D01*
X91469670Y-40358400D02*
X89490777Y-38379509D01*
X64879509Y-38379509D02*
X63000000Y-36500000D01*
X64434314Y-38500000D02*
X63000000Y-38500000D01*
X91186827Y-40641243D02*
X89325093Y-38779509D01*
X64713823Y-38779509D02*
X64434314Y-38500000D01*
X89325093Y-38779509D02*
X64713823Y-38779509D01*
X89159407Y-39179509D02*
X64320491Y-39179509D01*
X90903984Y-40924086D02*
X89159407Y-39179509D01*
X64320491Y-39179509D02*
X63000000Y-40500000D01*
X66420491Y-39579509D02*
X63000000Y-43000000D01*
X90621142Y-41206928D02*
X88993722Y-39579509D01*
X88993722Y-39579509D02*
X66420491Y-39579509D01*
X90338299Y-41489771D02*
X88828037Y-39979509D01*
X67520491Y-39979509D02*
X63000000Y-44500000D01*
X88828037Y-39979509D02*
X67520491Y-39979509D01*
X88662351Y-40379509D02*
X69120491Y-40379509D01*
X90055456Y-41772614D02*
X88662351Y-40379509D01*
X69120491Y-40379509D02*
X63000000Y-46500000D01*
D23*
X63000000Y-52412500D02*
X63000000Y-54500000D01*
X65000000Y-52412500D02*
X65000000Y-54500000D01*
X67000000Y-52412500D02*
X67000000Y-54500000D01*
X69000000Y-52412500D02*
X69000000Y-54500000D01*
X71000000Y-52412500D02*
X71000000Y-54500000D01*
X73000000Y-52412500D02*
X73000000Y-54500000D01*
X75000000Y-52412500D02*
X75000000Y-54500000D01*
X77000000Y-52412500D02*
X77000000Y-54500000D01*
X79000000Y-52412500D02*
X79000000Y-54500000D01*
X81000000Y-52412500D02*
X81000000Y-54500000D01*
X83000000Y-52412500D02*
X83000000Y-54500000D01*
X85000000Y-52412500D02*
X85000000Y-54500000D01*
X87000000Y-52412500D02*
X87000000Y-54500000D01*
X89000000Y-52412500D02*
X89000000Y-54500000D01*
X91000000Y-52412500D02*
X91000000Y-54500000D01*
X93000000Y-52412500D02*
X93000000Y-54500000D01*
X95000000Y-52412500D02*
X95000000Y-54500000D01*
X97000000Y-52412500D02*
X97000000Y-54500000D01*
X99000000Y-52412500D02*
X99000000Y-54500000D01*
X101000000Y-52412500D02*
X101000000Y-54500000D01*
X103000000Y-52412500D02*
X103000000Y-54500000D01*
X105000000Y-52412500D02*
X105000000Y-54500000D01*
X107000000Y-52412500D02*
X107000000Y-54500000D01*
X109000000Y-52412500D02*
X109000000Y-54500000D01*
X111000000Y-52412500D02*
X111000000Y-54500000D01*
X113000000Y-52412500D02*
X113000000Y-54500000D01*
X115000000Y-52412500D02*
X115000000Y-54500000D01*
X117000000Y-52412500D02*
X117000000Y-54500000D01*
X119000000Y-52412500D02*
X119000000Y-54500000D01*
X121000000Y-52412500D02*
X121000000Y-54500000D01*
D24*
X98642888Y-41570000D02*
X95278528Y-41570000D01*
X95278528Y-41570000D02*
X94510229Y-42338299D01*
X99006444Y-41933556D02*
X98642888Y-41570000D01*
X94660102Y-39360000D02*
X93096016Y-40924086D01*
X98044765Y-38675235D02*
X97360000Y-39360000D01*
X97360000Y-39360000D02*
X94660102Y-39360000D01*
X68362500Y-45225000D02*
X63000000Y-50587500D01*
X88476471Y-41325000D02*
X86637257Y-41325000D01*
X89489771Y-42338299D02*
X88476471Y-41325000D01*
X82737256Y-45225000D02*
X68362500Y-45225000D01*
X86637257Y-41325000D02*
X82737256Y-45225000D01*
X88310785Y-41725000D02*
X89206928Y-42621142D01*
X65000000Y-50587500D02*
X69962500Y-45625000D01*
X69962500Y-45625000D02*
X82902942Y-45625000D01*
X86802943Y-41725000D02*
X88310785Y-41725000D01*
X82902942Y-45625000D02*
X86802943Y-41725000D01*
X83068628Y-46025000D02*
X71562500Y-46025000D01*
X71562500Y-46025000D02*
X67000000Y-50587500D01*
X88145100Y-42125000D02*
X86968628Y-42125000D01*
X86968628Y-42125000D02*
X83068628Y-46025000D01*
X88924086Y-42903984D02*
X88145100Y-42125000D01*
X73162500Y-46425000D02*
X69000000Y-50587500D01*
X88641243Y-43186827D02*
X87979415Y-42525000D01*
X87134314Y-42525000D02*
X83234314Y-46425000D01*
X83234314Y-46425000D02*
X73162500Y-46425000D01*
X87979415Y-42525000D02*
X87134314Y-42525000D01*
X87300000Y-42925000D02*
X83400000Y-46825000D01*
X88358400Y-43469670D02*
X87813730Y-42925000D01*
X87813730Y-42925000D02*
X87300000Y-42925000D01*
X83400000Y-46825000D02*
X74762500Y-46825000D01*
X74762500Y-46825000D02*
X71000000Y-50587500D01*
X73000000Y-50587500D02*
X76362500Y-47225000D01*
X87279653Y-45174500D02*
X87714230Y-45174500D01*
X85229149Y-47225000D02*
X87279653Y-45174500D01*
X76362500Y-47225000D02*
X85229149Y-47225000D01*
X87714230Y-45174500D02*
X88358400Y-44530330D01*
X77962500Y-47625000D02*
X85394835Y-47625000D01*
X75000000Y-50587500D02*
X77962500Y-47625000D01*
X85394835Y-47625000D02*
X87445338Y-45574500D01*
X87445338Y-45574500D02*
X87879916Y-45574500D01*
X87879916Y-45574500D02*
X88641243Y-44813173D01*
X79562500Y-48025000D02*
X85560521Y-48025000D01*
X77000000Y-50587500D02*
X79562500Y-48025000D01*
X85560521Y-48025000D02*
X87611023Y-45974500D01*
X88045602Y-45974500D02*
X88924086Y-45096016D01*
X87611023Y-45974500D02*
X88045602Y-45974500D01*
X85726207Y-48425000D02*
X87776708Y-46374500D01*
X79000000Y-50587500D02*
X81162500Y-48425000D01*
X81162500Y-48425000D02*
X85726207Y-48425000D01*
X88211286Y-46374500D02*
X89206928Y-45378858D01*
X87776708Y-46374500D02*
X88211286Y-46374500D01*
X88376972Y-46774500D02*
X89489771Y-45661701D01*
X85891893Y-48825000D02*
X87942393Y-46774500D01*
X82762500Y-48825000D02*
X85891893Y-48825000D01*
X87942393Y-46774500D02*
X88376972Y-46774500D01*
X82762500Y-48825000D02*
X81000000Y-50587500D01*
X84362500Y-49225000D02*
X83000000Y-50587500D01*
X87057842Y-49225000D02*
X90055456Y-46227386D01*
X84362500Y-49225000D02*
X87057842Y-49225000D01*
X85962500Y-49625000D02*
X87223528Y-49625000D01*
X85000000Y-50587500D02*
X85962500Y-49625000D01*
X87223528Y-49625000D02*
X90338299Y-46510229D01*
X87000000Y-50587500D02*
X87000000Y-50414214D01*
X87000000Y-50414214D02*
X90621142Y-46793072D01*
X89000000Y-50587500D02*
X89000000Y-48979898D01*
X89000000Y-48979898D02*
X90903984Y-47075914D01*
X90500000Y-50087500D02*
X90500000Y-48045584D01*
X91000000Y-50587500D02*
X90500000Y-50087500D01*
X90500000Y-48045584D02*
X91186827Y-47358757D01*
X93000000Y-50587500D02*
X91150000Y-48737500D01*
X91150000Y-48737500D02*
X91150000Y-47961270D01*
X91150000Y-47961270D02*
X91469670Y-47641600D01*
X92530330Y-47641600D02*
X95000000Y-50111270D01*
X95000000Y-50111270D02*
X95000000Y-50587500D01*
X92813173Y-47358757D02*
X95229416Y-49775000D01*
X96187500Y-49775000D02*
X97000000Y-50587500D01*
X95229416Y-49775000D02*
X96187500Y-49775000D01*
X93096016Y-47075914D02*
X95395102Y-49375000D01*
X95395102Y-49375000D02*
X97787500Y-49375000D01*
X97787500Y-49375000D02*
X99000000Y-50587500D01*
X93378858Y-46793072D02*
X95560786Y-48975000D01*
X99477500Y-48975000D02*
X101090000Y-50587500D01*
X95560786Y-48975000D02*
X99477500Y-48975000D01*
X100987500Y-48575000D02*
X103000000Y-50587500D01*
X95726474Y-48575000D02*
X100987500Y-48575000D01*
X93661701Y-46510229D02*
X95726474Y-48575000D01*
X93944544Y-46227386D02*
X95892158Y-48175000D01*
X95892158Y-48175000D02*
X102587500Y-48175000D01*
X102587500Y-48175000D02*
X105000000Y-50587500D01*
X94227386Y-45944544D02*
X96057842Y-47775000D01*
X96057842Y-47775000D02*
X104187500Y-47775000D01*
X104187500Y-47775000D02*
X107000000Y-50587500D01*
X96223528Y-47375000D02*
X105787500Y-47375000D01*
X105787500Y-47375000D02*
X109000000Y-50587500D01*
X94510229Y-45661701D02*
X96223528Y-47375000D01*
X96389214Y-46975000D02*
X107387500Y-46975000D01*
X107387500Y-46975000D02*
X111000000Y-50587500D01*
X94793072Y-45378858D02*
X96389214Y-46975000D01*
X96554898Y-46575000D02*
X108987500Y-46575000D01*
X95075914Y-45096016D02*
X96554898Y-46575000D01*
X108987500Y-46575000D02*
X113000000Y-50587500D01*
X109153186Y-46175000D02*
X109728186Y-46750000D01*
X95358757Y-44813173D02*
X96720584Y-46175000D01*
X96720584Y-46175000D02*
X109153186Y-46175000D01*
X111162500Y-46750000D02*
X115000000Y-50587500D01*
X109728186Y-46750000D02*
X111162500Y-46750000D01*
X112762500Y-46350000D02*
X117000000Y-50587500D01*
X96886270Y-45775000D02*
X109318872Y-45775000D01*
X109893872Y-46350000D02*
X112762500Y-46350000D01*
X109318872Y-45775000D02*
X109893872Y-46350000D01*
X95641600Y-44530330D02*
X96886270Y-45775000D01*
X97600000Y-42770000D02*
X100205000Y-45375000D01*
X110059558Y-45950000D02*
X114362500Y-45950000D01*
X109484558Y-45375000D02*
X110059558Y-45950000D01*
X114362500Y-45950000D02*
X119000000Y-50587500D01*
X95775584Y-42770000D02*
X97600000Y-42770000D01*
X100205000Y-45375000D02*
X109484558Y-45375000D01*
X95358757Y-43186827D02*
X95775584Y-42770000D01*
X109650244Y-44975000D02*
X100615000Y-44975000D01*
X95609898Y-42370000D02*
X98010000Y-42370000D01*
X121000000Y-50587500D02*
X115962500Y-45550000D01*
X115962500Y-45550000D02*
X110225244Y-45550000D01*
X110225244Y-45550000D02*
X109650244Y-44975000D01*
X98010000Y-42370000D02*
X100610000Y-44970000D01*
X100610000Y-44970000D02*
X100620000Y-44970000D01*
X95075914Y-42903984D02*
X95609898Y-42370000D01*
G04 #@! TA.AperFunction,Conductor*
G36*
X84583922Y-40700011D02*
G01*
X84630415Y-40753667D01*
X84640519Y-40823941D01*
X84611025Y-40888521D01*
X84604896Y-40895104D01*
X84069748Y-41430252D01*
X84007436Y-41464278D01*
X83980653Y-41467157D01*
X83519347Y-41467157D01*
X83451226Y-41447155D01*
X83430252Y-41430252D01*
X83405603Y-41405603D01*
X83392762Y-41390569D01*
X83360970Y-41346810D01*
X83354553Y-41339298D01*
X83311861Y-41296606D01*
X83297917Y-41288992D01*
X83296084Y-41289123D01*
X83291846Y-41291846D01*
X83007056Y-41007056D01*
X83011007Y-40999820D01*
X83010876Y-40997987D01*
X83006625Y-40991372D01*
X82960702Y-40945449D01*
X82953188Y-40939031D01*
X82910401Y-40907944D01*
X82867048Y-40851722D01*
X82860973Y-40780985D01*
X82894105Y-40718194D01*
X82955926Y-40683283D01*
X82984463Y-40680009D01*
X84515801Y-40680009D01*
X84583922Y-40700011D01*
G37*
G04 #@! TD.AperFunction*
M02*
