G04 #@! TF.GenerationSoftware,KiCad,Pcbnew,(6.0.10)*
G04 #@! TF.CreationDate,2023-02-04T17:17:42+01:00*
G04 #@! TF.ProjectId,Lumissil_IS31FL3742A_breakout,4c756d69-7373-4696-9c5f-49533331464c,rev?*
G04 #@! TF.SameCoordinates,Original*
G04 #@! TF.FileFunction,Copper,L2,Bot*
G04 #@! TF.FilePolarity,Positive*
%FSLAX46Y46*%
G04 Gerber Fmt 4.6, Leading zero omitted, Abs format (unit mm)*
G04 Created by KiCad (PCBNEW (6.0.10)) date 2023-02-04 17:17:42*
%MOMM*%
%LPD*%
G01*
G04 APERTURE LIST*
G04 Aperture macros list*
%AMRotRect*
0 Rectangle, with rotation*
0 The origin of the aperture is its center*
0 $1 length*
0 $2 width*
0 $3 Rotation angle, in degrees counterclockwise*
0 Add horizontal line*
21,1,$1,$2,0,0,$3*%
%AMFreePoly0*
4,1,6,1.000000,0.000000,0.500000,-0.750000,-0.500000,-0.750000,-0.500000,0.750000,0.500000,0.750000,1.000000,0.000000,1.000000,0.000000,$1*%
%AMFreePoly1*
4,1,6,0.500000,-0.750000,-0.650000,-0.750000,-0.150000,0.000000,-0.650000,0.750000,0.500000,0.750000,0.500000,-0.750000,0.500000,-0.750000,$1*%
G04 Aperture macros list end*
G04 #@! TA.AperFunction,ComponentPad*
%ADD10C,1.350000*%
G04 #@! TD*
G04 #@! TA.AperFunction,ComponentPad*
%ADD11O,1.350000X1.350000*%
G04 #@! TD*
G04 #@! TA.AperFunction,ComponentPad*
%ADD12C,0.500000*%
G04 #@! TD*
G04 #@! TA.AperFunction,SMDPad,CuDef*
%ADD13RotRect,3.650000X3.650000X225.000000*%
G04 #@! TD*
G04 #@! TA.AperFunction,SMDPad,CuDef*
%ADD14FreePoly0,90.000000*%
G04 #@! TD*
G04 #@! TA.AperFunction,SMDPad,CuDef*
%ADD15FreePoly1,90.000000*%
G04 #@! TD*
G04 #@! TA.AperFunction,ViaPad*
%ADD16C,0.500000*%
G04 #@! TD*
G04 #@! TA.AperFunction,Conductor*
%ADD17C,1.000000*%
G04 #@! TD*
G04 #@! TA.AperFunction,Conductor*
%ADD18C,0.200000*%
G04 #@! TD*
G04 APERTURE END LIST*
D10*
X121000000Y-36500000D03*
D11*
X121000000Y-38500000D03*
X121000000Y-40500000D03*
X121000000Y-42500000D03*
X121000000Y-44500000D03*
X121000000Y-46500000D03*
D10*
X63000000Y-54500000D03*
D11*
X65000000Y-54500000D03*
X67000000Y-54500000D03*
X69000000Y-54500000D03*
X71000000Y-54500000D03*
X73000000Y-54500000D03*
X75000000Y-54500000D03*
X77000000Y-54500000D03*
X79000000Y-54500000D03*
X81000000Y-54500000D03*
X83000000Y-54500000D03*
X85000000Y-54500000D03*
X87000000Y-54500000D03*
X89000000Y-54500000D03*
X91000000Y-54500000D03*
X93000000Y-54500000D03*
X95000000Y-54500000D03*
X97000000Y-54500000D03*
X99000000Y-54500000D03*
X101000000Y-54500000D03*
X103000000Y-54500000D03*
X105000000Y-54500000D03*
X107000000Y-54500000D03*
X109000000Y-54500000D03*
X111000000Y-54500000D03*
X113000000Y-54500000D03*
X115000000Y-54500000D03*
X117000000Y-54500000D03*
X119000000Y-54500000D03*
X121000000Y-54500000D03*
D12*
X93484924Y-43257538D03*
X94227386Y-44000000D03*
X91257538Y-42515076D03*
X92742462Y-44000000D03*
X93484924Y-44742462D03*
X92742462Y-42515076D03*
X90515076Y-44742462D03*
X92742462Y-45484924D03*
X92000000Y-44742462D03*
X90515076Y-43257538D03*
X92000000Y-41772614D03*
X89772614Y-44000000D03*
X91257538Y-44000000D03*
D13*
X92000000Y-44000000D03*
D12*
X91257538Y-45484924D03*
X92000000Y-46227386D03*
X92000000Y-43257538D03*
D10*
X63000000Y-36500000D03*
D11*
X63000000Y-38500000D03*
X63000000Y-40500000D03*
X63000000Y-42500000D03*
X63000000Y-44500000D03*
X63000000Y-46500000D03*
D14*
X114430000Y-39475000D03*
D15*
X114430000Y-38025000D03*
D14*
X117020000Y-39475000D03*
D15*
X117020000Y-38025000D03*
D14*
X111840000Y-39475000D03*
D15*
X111840000Y-38025000D03*
D14*
X109250000Y-39475000D03*
D15*
X109250000Y-38025000D03*
D16*
X115700000Y-37029000D03*
X100120000Y-42160500D03*
X102100000Y-44330000D03*
X107750000Y-40750000D03*
X95040000Y-38760000D03*
X83750000Y-40929009D03*
X91250000Y-38750000D03*
X114940000Y-43190000D03*
X81920000Y-44580000D03*
X100290000Y-36490000D03*
X105500000Y-36500000D03*
X87972002Y-47522002D03*
X97681728Y-39805469D03*
X102610000Y-36660000D03*
X80820000Y-43480000D03*
X97610000Y-43830000D03*
X90000000Y-37000000D03*
X97000000Y-37000000D03*
X107500000Y-38000000D03*
X99130000Y-40160000D03*
X99006444Y-41933556D03*
D17*
X87750000Y-38750000D02*
X91250000Y-38750000D01*
X85570991Y-40929009D02*
X87750000Y-38750000D01*
X83750000Y-40929009D02*
X85570991Y-40929009D01*
X96000000Y-39720000D02*
X95040000Y-38760000D01*
X96000000Y-40876498D02*
X96000000Y-39720000D01*
X100186751Y-45063249D02*
X96000000Y-40876498D01*
D18*
X109500000Y-46500000D02*
X109750000Y-46500000D01*
X107750000Y-44750000D02*
X109500000Y-46500000D01*
X107750000Y-40750000D02*
X107750000Y-44750000D01*
X100120000Y-44996498D02*
X100186751Y-45063249D01*
X100120000Y-42160500D02*
X100120000Y-44996498D01*
D17*
X101623503Y-46500000D02*
X100186751Y-45063249D01*
D18*
X102100000Y-45100000D02*
X103500000Y-46500000D01*
X102100000Y-44330000D02*
X102100000Y-45100000D01*
D17*
X109750000Y-46500000D02*
X103500000Y-46500000D01*
X103500000Y-46500000D02*
X101623503Y-46500000D01*
X116750000Y-46500000D02*
X109750000Y-46500000D01*
D18*
X114940000Y-43190000D02*
X114940000Y-44690000D01*
D17*
X121000000Y-46500000D02*
X116750000Y-46500000D01*
D18*
X114940000Y-44690000D02*
X116750000Y-46500000D01*
D17*
X91260000Y-38760000D02*
X91250000Y-38750000D01*
X95040000Y-38760000D02*
X91260000Y-38760000D01*
D18*
X115700000Y-37029000D02*
X115471000Y-36800000D01*
X114900000Y-36800000D02*
X114430000Y-37270000D01*
X114430000Y-37270000D02*
X114430000Y-38025000D01*
X115471000Y-36800000D02*
X114900000Y-36800000D01*
X107500000Y-38000000D02*
X109225000Y-38000000D01*
X109225000Y-38000000D02*
X109250000Y-38025000D01*
X111840000Y-37090000D02*
X111840000Y-38025000D01*
X107100001Y-36750000D02*
X111500000Y-36750000D01*
X111500000Y-36750000D02*
X111840000Y-37090000D01*
X99130000Y-40160000D02*
X103690000Y-40160000D01*
X103690000Y-40160000D02*
X107100001Y-36750000D01*
X109250000Y-39475000D02*
X111840000Y-39475000D01*
X104940686Y-39475000D02*
X109250000Y-39475000D01*
X100380000Y-40560000D02*
X103855686Y-40560000D01*
X111840000Y-39475000D02*
X114430000Y-39475000D01*
X114430000Y-39475000D02*
X117020000Y-39475000D01*
X99006444Y-41933556D02*
X100380000Y-40560000D01*
X103855686Y-40560000D02*
X104940686Y-39475000D01*
G04 #@! TA.AperFunction,Conductor*
G36*
X120126377Y-35820502D02*
G01*
X120172870Y-35874158D01*
X120182974Y-35944432D01*
X120168671Y-35987201D01*
X120099045Y-36113850D01*
X120097184Y-36119717D01*
X120097183Y-36119719D01*
X120093171Y-36132367D01*
X120041200Y-36296201D01*
X120019876Y-36486314D01*
X120035884Y-36676948D01*
X120037583Y-36682872D01*
X120079511Y-36829095D01*
X120088614Y-36860843D01*
X120091433Y-36866328D01*
X120173242Y-37025511D01*
X120173245Y-37025516D01*
X120176060Y-37030993D01*
X120294889Y-37180918D01*
X120299583Y-37184913D01*
X120433730Y-37299081D01*
X120440575Y-37304907D01*
X120445953Y-37307913D01*
X120445955Y-37307914D01*
X120594700Y-37391044D01*
X120644406Y-37441737D01*
X120658814Y-37511256D01*
X120633351Y-37577529D01*
X120591605Y-37612694D01*
X120463268Y-37679787D01*
X120458468Y-37683647D01*
X120458467Y-37683647D01*
X120318983Y-37795795D01*
X120314176Y-37799660D01*
X120191207Y-37946208D01*
X120188237Y-37951611D01*
X120188236Y-37951612D01*
X120157610Y-38007321D01*
X120099045Y-38113850D01*
X120097184Y-38119717D01*
X120097183Y-38119719D01*
X120056660Y-38247465D01*
X120041200Y-38296201D01*
X120019876Y-38486314D01*
X120035884Y-38676948D01*
X120049579Y-38724710D01*
X120066028Y-38782073D01*
X120088614Y-38860843D01*
X120091433Y-38866328D01*
X120173242Y-39025511D01*
X120173245Y-39025516D01*
X120176060Y-39030993D01*
X120294889Y-39180918D01*
X120299583Y-39184913D01*
X120435154Y-39300293D01*
X120440575Y-39304907D01*
X120445953Y-39307913D01*
X120445955Y-39307914D01*
X120594700Y-39391044D01*
X120644406Y-39441737D01*
X120658814Y-39511256D01*
X120633351Y-39577529D01*
X120591605Y-39612694D01*
X120463268Y-39679787D01*
X120458468Y-39683647D01*
X120458467Y-39683647D01*
X120354325Y-39767379D01*
X120314176Y-39799660D01*
X120191207Y-39946208D01*
X120188237Y-39951611D01*
X120188236Y-39951612D01*
X120148177Y-40024480D01*
X120099045Y-40113850D01*
X120097184Y-40119717D01*
X120097183Y-40119719D01*
X120048190Y-40274165D01*
X120041200Y-40296201D01*
X120019876Y-40486314D01*
X120020392Y-40492458D01*
X120032854Y-40640861D01*
X120035884Y-40676948D01*
X120088614Y-40860843D01*
X120091433Y-40866328D01*
X120173242Y-41025511D01*
X120173245Y-41025516D01*
X120176060Y-41030993D01*
X120294889Y-41180918D01*
X120299583Y-41184913D01*
X120401742Y-41271857D01*
X120440575Y-41304907D01*
X120584920Y-41385578D01*
X120594700Y-41391044D01*
X120644406Y-41441737D01*
X120658814Y-41511256D01*
X120633351Y-41577529D01*
X120591605Y-41612694D01*
X120463268Y-41679787D01*
X120458468Y-41683647D01*
X120458467Y-41683647D01*
X120400348Y-41730376D01*
X120314176Y-41799660D01*
X120191207Y-41946208D01*
X120188237Y-41951611D01*
X120188236Y-41951612D01*
X120177471Y-41971193D01*
X120099045Y-42113850D01*
X120097184Y-42119717D01*
X120097183Y-42119719D01*
X120043062Y-42290331D01*
X120041200Y-42296201D01*
X120019876Y-42486314D01*
X120020392Y-42492458D01*
X120034962Y-42665964D01*
X120035884Y-42676948D01*
X120047416Y-42717166D01*
X120065039Y-42778624D01*
X120088614Y-42860843D01*
X120091433Y-42866328D01*
X120173242Y-43025511D01*
X120173245Y-43025516D01*
X120176060Y-43030993D01*
X120294889Y-43180918D01*
X120299583Y-43184913D01*
X120381881Y-43254954D01*
X120440575Y-43304907D01*
X120445953Y-43307913D01*
X120445955Y-43307914D01*
X120474010Y-43323593D01*
X120607570Y-43398237D01*
X120709181Y-43431253D01*
X120767786Y-43471325D01*
X120795423Y-43536722D01*
X120783316Y-43606679D01*
X120735310Y-43658985D01*
X120721493Y-43666192D01*
X120566120Y-43735369D01*
X120554748Y-43741935D01*
X120416630Y-43842283D01*
X120406864Y-43851077D01*
X120292630Y-43977947D01*
X120284909Y-43988573D01*
X120199548Y-44136422D01*
X120194202Y-44148429D01*
X120183045Y-44182768D01*
X120182642Y-44196867D01*
X120189014Y-44200000D01*
X121174000Y-44200000D01*
X121242121Y-44220002D01*
X121288614Y-44273658D01*
X121300000Y-44326000D01*
X121300000Y-44674000D01*
X121279998Y-44742121D01*
X121226342Y-44788614D01*
X121174000Y-44800000D01*
X120195561Y-44800000D01*
X120182030Y-44803973D01*
X120181020Y-44811000D01*
X120194202Y-44851571D01*
X120199548Y-44863578D01*
X120284909Y-45011427D01*
X120292630Y-45022053D01*
X120406864Y-45148923D01*
X120416630Y-45157717D01*
X120554748Y-45258065D01*
X120566125Y-45264633D01*
X120721329Y-45333736D01*
X120775424Y-45379716D01*
X120796073Y-45447643D01*
X120776720Y-45515951D01*
X120723509Y-45562952D01*
X120705671Y-45569710D01*
X120632803Y-45591156D01*
X120463268Y-45679787D01*
X120463206Y-45679668D01*
X120396679Y-45699500D01*
X116568083Y-45699500D01*
X116499962Y-45679498D01*
X116478988Y-45662595D01*
X115377405Y-44561012D01*
X115343379Y-44498700D01*
X115340500Y-44471917D01*
X115340500Y-43615124D01*
X115360502Y-43547003D01*
X115366538Y-43538420D01*
X115387539Y-43511051D01*
X115420861Y-43467625D01*
X115476330Y-43333709D01*
X115495250Y-43190000D01*
X115476330Y-43046291D01*
X115420861Y-42912375D01*
X115332621Y-42797379D01*
X115217625Y-42709139D01*
X115083709Y-42653670D01*
X114940000Y-42634750D01*
X114796291Y-42653670D01*
X114662375Y-42709139D01*
X114547379Y-42797379D01*
X114459139Y-42912375D01*
X114403670Y-43046291D01*
X114384750Y-43190000D01*
X114403670Y-43333709D01*
X114459139Y-43467625D01*
X114492461Y-43511051D01*
X114513462Y-43538420D01*
X114539063Y-43604640D01*
X114539500Y-43615124D01*
X114539500Y-44753433D01*
X114542564Y-44762864D01*
X114542565Y-44762868D01*
X114546297Y-44774353D01*
X114550913Y-44793578D01*
X114554354Y-44815304D01*
X114558855Y-44824137D01*
X114558856Y-44824141D01*
X114564341Y-44834906D01*
X114571905Y-44853166D01*
X114578704Y-44874090D01*
X114591639Y-44891893D01*
X114601965Y-44908745D01*
X114611950Y-44928342D01*
X114634513Y-44950905D01*
X114634516Y-44950909D01*
X115168012Y-45484405D01*
X115202038Y-45546717D01*
X115196973Y-45617532D01*
X115154426Y-45674368D01*
X115087906Y-45699179D01*
X115078917Y-45699500D01*
X109318083Y-45699500D01*
X109249962Y-45679498D01*
X109228988Y-45662595D01*
X108187405Y-44621012D01*
X108153379Y-44558700D01*
X108150500Y-44531917D01*
X108150500Y-42433789D01*
X110595996Y-42433789D01*
X110596196Y-42439118D01*
X110596196Y-42439119D01*
X110597351Y-42469886D01*
X110604913Y-42671295D01*
X110653719Y-42903904D01*
X110655677Y-42908863D01*
X110655678Y-42908865D01*
X110704925Y-43033564D01*
X110741020Y-43124963D01*
X110743787Y-43129522D01*
X110743788Y-43129525D01*
X110794829Y-43213637D01*
X110864319Y-43328153D01*
X110867816Y-43332183D01*
X110999810Y-43484293D01*
X111020090Y-43507664D01*
X111024216Y-43511047D01*
X111024220Y-43511051D01*
X111121916Y-43591156D01*
X111203880Y-43658362D01*
X111208516Y-43661001D01*
X111208519Y-43661003D01*
X111307804Y-43717519D01*
X111410433Y-43775939D01*
X111633844Y-43857034D01*
X111639092Y-43857983D01*
X111863641Y-43898588D01*
X111863648Y-43898589D01*
X111867725Y-43899326D01*
X111885991Y-43900187D01*
X111891131Y-43900430D01*
X111891138Y-43900430D01*
X111892619Y-43900500D01*
X112059680Y-43900500D01*
X112142026Y-43893513D01*
X112231512Y-43885920D01*
X112231516Y-43885919D01*
X112236823Y-43885469D01*
X112241978Y-43884131D01*
X112241984Y-43884130D01*
X112461703Y-43827102D01*
X112461702Y-43827102D01*
X112466874Y-43825760D01*
X112583327Y-43773302D01*
X112678715Y-43730333D01*
X112678718Y-43730332D01*
X112683576Y-43728143D01*
X112880732Y-43595409D01*
X112885191Y-43591156D01*
X112958643Y-43521086D01*
X113052705Y-43431355D01*
X113194579Y-43240670D01*
X113302295Y-43028807D01*
X113309940Y-43004188D01*
X113371193Y-42806919D01*
X113372775Y-42801824D01*
X113385479Y-42705979D01*
X113403304Y-42571494D01*
X113403304Y-42571491D01*
X113404004Y-42566211D01*
X113401894Y-42509997D01*
X113395287Y-42334036D01*
X113395087Y-42328705D01*
X113346281Y-42096096D01*
X113330214Y-42055412D01*
X113260941Y-41880002D01*
X113260940Y-41880000D01*
X113258980Y-41875037D01*
X113216708Y-41805374D01*
X113138448Y-41676407D01*
X113135681Y-41671847D01*
X113119304Y-41652974D01*
X112983410Y-41496369D01*
X112983408Y-41496367D01*
X112979910Y-41492336D01*
X112975784Y-41488953D01*
X112975780Y-41488949D01*
X112831805Y-41370898D01*
X112796120Y-41341638D01*
X112791484Y-41338999D01*
X112791481Y-41338997D01*
X112662070Y-41265332D01*
X112589567Y-41224061D01*
X112366156Y-41142966D01*
X112307465Y-41132353D01*
X112136359Y-41101412D01*
X112136352Y-41101411D01*
X112132275Y-41100674D01*
X112114009Y-41099813D01*
X112108869Y-41099570D01*
X112108862Y-41099570D01*
X112107381Y-41099500D01*
X111940320Y-41099500D01*
X111857974Y-41106487D01*
X111768488Y-41114080D01*
X111768484Y-41114081D01*
X111763177Y-41114531D01*
X111758022Y-41115869D01*
X111758016Y-41115870D01*
X111646612Y-41144785D01*
X111533126Y-41174240D01*
X111454079Y-41209848D01*
X111321285Y-41269667D01*
X111321282Y-41269668D01*
X111316424Y-41271857D01*
X111312000Y-41274836D01*
X111311999Y-41274836D01*
X111289741Y-41289821D01*
X111119268Y-41404591D01*
X111115411Y-41408270D01*
X111115409Y-41408272D01*
X111068842Y-41452695D01*
X110947295Y-41568645D01*
X110805421Y-41759330D01*
X110697705Y-41971193D01*
X110696124Y-41976284D01*
X110696123Y-41976287D01*
X110651181Y-42121026D01*
X110627225Y-42198176D01*
X110626524Y-42203465D01*
X110598564Y-42414417D01*
X110595996Y-42433789D01*
X108150500Y-42433789D01*
X108150500Y-41175124D01*
X108170502Y-41107003D01*
X108176538Y-41098420D01*
X108186389Y-41085582D01*
X108230861Y-41027625D01*
X108286330Y-40893709D01*
X108305250Y-40750000D01*
X108286330Y-40606291D01*
X108230861Y-40472375D01*
X108196090Y-40427061D01*
X108170489Y-40360841D01*
X108184753Y-40291292D01*
X108188514Y-40287441D01*
X108164086Y-40304325D01*
X108093130Y-40306711D01*
X108047845Y-40284655D01*
X108027625Y-40269139D01*
X107893709Y-40213670D01*
X107750000Y-40194750D01*
X107606291Y-40213670D01*
X107472375Y-40269139D01*
X107357379Y-40357379D01*
X107269139Y-40472375D01*
X107213670Y-40606291D01*
X107194750Y-40750000D01*
X107213670Y-40893709D01*
X107269139Y-41027625D01*
X107313611Y-41085582D01*
X107323462Y-41098420D01*
X107349063Y-41164640D01*
X107349500Y-41175124D01*
X107349500Y-44813433D01*
X107352564Y-44822864D01*
X107352565Y-44822868D01*
X107356297Y-44834353D01*
X107360913Y-44853578D01*
X107364354Y-44875304D01*
X107368855Y-44884137D01*
X107368856Y-44884141D01*
X107374341Y-44894906D01*
X107381905Y-44913166D01*
X107388704Y-44934090D01*
X107401639Y-44951893D01*
X107411965Y-44968745D01*
X107421950Y-44988342D01*
X107444513Y-45010905D01*
X107444516Y-45010909D01*
X107918012Y-45484405D01*
X107952038Y-45546717D01*
X107946973Y-45617532D01*
X107904426Y-45674368D01*
X107837906Y-45699179D01*
X107828917Y-45699500D01*
X103318083Y-45699500D01*
X103249962Y-45679498D01*
X103228988Y-45662595D01*
X102537405Y-44971012D01*
X102503379Y-44908700D01*
X102500500Y-44881917D01*
X102500500Y-44755124D01*
X102520502Y-44687003D01*
X102526538Y-44678420D01*
X102536389Y-44665582D01*
X102580861Y-44607625D01*
X102636330Y-44473709D01*
X102655250Y-44330000D01*
X102636330Y-44186291D01*
X102580861Y-44052375D01*
X102492621Y-43937379D01*
X102377625Y-43849139D01*
X102243709Y-43793670D01*
X102100000Y-43774750D01*
X101956291Y-43793670D01*
X101822375Y-43849139D01*
X101707379Y-43937379D01*
X101619139Y-44052375D01*
X101563670Y-44186291D01*
X101544750Y-44330000D01*
X101563670Y-44473709D01*
X101619139Y-44607625D01*
X101663611Y-44665582D01*
X101673462Y-44678420D01*
X101699063Y-44744640D01*
X101699500Y-44755124D01*
X101699500Y-45139729D01*
X101679498Y-45207850D01*
X101625842Y-45254343D01*
X101555568Y-45264447D01*
X101490988Y-45234953D01*
X101484414Y-45228833D01*
X100720860Y-44465280D01*
X100557404Y-44301824D01*
X100523380Y-44239513D01*
X100520500Y-44212730D01*
X100520500Y-42585624D01*
X100540502Y-42517503D01*
X100546538Y-42508920D01*
X100568584Y-42480189D01*
X100600861Y-42438125D01*
X100656330Y-42304209D01*
X100675250Y-42160500D01*
X100656330Y-42016791D01*
X100600861Y-41882875D01*
X100512621Y-41767879D01*
X100397625Y-41679639D01*
X100263709Y-41624170D01*
X100179919Y-41613139D01*
X100114993Y-41584417D01*
X100075901Y-41525152D01*
X100075056Y-41454160D01*
X100107271Y-41399122D01*
X100508988Y-40997405D01*
X100571300Y-40963379D01*
X100598083Y-40960500D01*
X103919119Y-40960500D01*
X103928550Y-40957436D01*
X103928554Y-40957435D01*
X103940039Y-40953703D01*
X103959264Y-40949087D01*
X103971198Y-40947197D01*
X103971199Y-40947197D01*
X103980990Y-40945646D01*
X103989823Y-40941145D01*
X103989827Y-40941144D01*
X104000592Y-40935659D01*
X104018852Y-40928095D01*
X104039776Y-40921296D01*
X104057579Y-40908361D01*
X104074431Y-40898035D01*
X104085188Y-40892554D01*
X104094028Y-40888050D01*
X104116591Y-40865487D01*
X104116595Y-40865484D01*
X105069674Y-39912405D01*
X105131986Y-39878379D01*
X105158769Y-39875500D01*
X108069385Y-39875500D01*
X108137506Y-39895502D01*
X108183999Y-39949158D01*
X108193592Y-39988820D01*
X108194089Y-39988739D01*
X108195160Y-39995303D01*
X108195251Y-39995680D01*
X108195599Y-40003207D01*
X108226344Y-40111264D01*
X108233379Y-40120580D01*
X108237336Y-40128527D01*
X108249796Y-40198421D01*
X108230709Y-40244229D01*
X108234354Y-40240496D01*
X108303544Y-40224580D01*
X108362382Y-40243229D01*
X108379643Y-40253917D01*
X108379646Y-40253918D01*
X108389567Y-40260061D01*
X108401039Y-40262205D01*
X108401040Y-40262206D01*
X108494275Y-40279635D01*
X108494277Y-40279635D01*
X108500000Y-40280705D01*
X110000000Y-40280705D01*
X110001442Y-40280638D01*
X110001457Y-40280638D01*
X110013332Y-40280089D01*
X110028207Y-40279401D01*
X110075381Y-40265979D01*
X110125035Y-40251851D01*
X110136264Y-40248656D01*
X110191340Y-40207065D01*
X110216601Y-40187989D01*
X110216602Y-40187988D01*
X110225919Y-40180952D01*
X110259654Y-40126467D01*
X110278917Y-40095357D01*
X110278918Y-40095354D01*
X110285061Y-40085433D01*
X110305080Y-39978346D01*
X110337258Y-39915062D01*
X110398543Y-39879220D01*
X110428934Y-39875500D01*
X110659385Y-39875500D01*
X110727506Y-39895502D01*
X110773999Y-39949158D01*
X110783592Y-39988820D01*
X110784089Y-39988739D01*
X110785160Y-39995303D01*
X110785251Y-39995680D01*
X110785599Y-40003207D01*
X110816344Y-40111264D01*
X110823380Y-40120581D01*
X110874284Y-40187989D01*
X110884048Y-40200919D01*
X110922262Y-40224580D01*
X110969643Y-40253917D01*
X110969646Y-40253918D01*
X110979567Y-40260061D01*
X110991039Y-40262205D01*
X110991040Y-40262206D01*
X111084275Y-40279635D01*
X111084277Y-40279635D01*
X111090000Y-40280705D01*
X112590000Y-40280705D01*
X112591442Y-40280638D01*
X112591457Y-40280638D01*
X112603332Y-40280089D01*
X112618207Y-40279401D01*
X112665381Y-40265979D01*
X112715035Y-40251851D01*
X112726264Y-40248656D01*
X112781340Y-40207065D01*
X112806601Y-40187989D01*
X112806602Y-40187988D01*
X112815919Y-40180952D01*
X112849654Y-40126467D01*
X112868917Y-40095357D01*
X112868918Y-40095354D01*
X112875061Y-40085433D01*
X112895080Y-39978346D01*
X112927258Y-39915062D01*
X112988543Y-39879220D01*
X113018934Y-39875500D01*
X113249385Y-39875500D01*
X113317506Y-39895502D01*
X113363999Y-39949158D01*
X113373592Y-39988820D01*
X113374089Y-39988739D01*
X113375160Y-39995303D01*
X113375251Y-39995680D01*
X113375599Y-40003207D01*
X113406344Y-40111264D01*
X113413380Y-40120581D01*
X113464284Y-40187989D01*
X113474048Y-40200919D01*
X113512262Y-40224580D01*
X113559643Y-40253917D01*
X113559646Y-40253918D01*
X113569567Y-40260061D01*
X113581039Y-40262205D01*
X113581040Y-40262206D01*
X113674275Y-40279635D01*
X113674277Y-40279635D01*
X113680000Y-40280705D01*
X115180000Y-40280705D01*
X115181442Y-40280638D01*
X115181457Y-40280638D01*
X115193332Y-40280089D01*
X115208207Y-40279401D01*
X115255381Y-40265979D01*
X115305035Y-40251851D01*
X115316264Y-40248656D01*
X115371340Y-40207065D01*
X115396601Y-40187989D01*
X115396602Y-40187988D01*
X115405919Y-40180952D01*
X115439654Y-40126467D01*
X115458917Y-40095357D01*
X115458918Y-40095354D01*
X115465061Y-40085433D01*
X115485080Y-39978346D01*
X115517258Y-39915062D01*
X115578543Y-39879220D01*
X115608934Y-39875500D01*
X115839385Y-39875500D01*
X115907506Y-39895502D01*
X115953999Y-39949158D01*
X115963592Y-39988820D01*
X115964089Y-39988739D01*
X115965160Y-39995303D01*
X115965251Y-39995680D01*
X115965599Y-40003207D01*
X115996344Y-40111264D01*
X116003380Y-40120581D01*
X116054284Y-40187989D01*
X116064048Y-40200919D01*
X116102262Y-40224580D01*
X116149643Y-40253917D01*
X116149646Y-40253918D01*
X116159567Y-40260061D01*
X116171039Y-40262205D01*
X116171040Y-40262206D01*
X116264275Y-40279635D01*
X116264277Y-40279635D01*
X116270000Y-40280705D01*
X117770000Y-40280705D01*
X117771442Y-40280638D01*
X117771457Y-40280638D01*
X117783332Y-40280089D01*
X117798207Y-40279401D01*
X117845381Y-40265979D01*
X117895035Y-40251851D01*
X117906264Y-40248656D01*
X117961340Y-40207065D01*
X117986601Y-40187989D01*
X117986602Y-40187988D01*
X117995919Y-40180952D01*
X118029654Y-40126467D01*
X118048917Y-40095357D01*
X118048918Y-40095354D01*
X118055061Y-40085433D01*
X118066456Y-40024480D01*
X118074635Y-39980725D01*
X118074635Y-39980723D01*
X118075705Y-39975000D01*
X118075705Y-38975000D01*
X118066680Y-38901266D01*
X118020010Y-38799072D01*
X117939575Y-38720638D01*
X117489371Y-38420502D01*
X117190456Y-38221225D01*
X117190442Y-38221216D01*
X117189575Y-38220638D01*
X117185882Y-38218351D01*
X117177963Y-38213448D01*
X117172110Y-38209824D01*
X117165614Y-38207555D01*
X117165611Y-38207554D01*
X117077069Y-38176633D01*
X117066045Y-38172783D01*
X117054376Y-38173175D01*
X117054375Y-38173175D01*
X117009904Y-38174670D01*
X116953763Y-38176557D01*
X116850425Y-38220638D01*
X116845578Y-38223869D01*
X116845573Y-38223872D01*
X116103614Y-38718512D01*
X116100425Y-38720638D01*
X116044081Y-38769048D01*
X116038989Y-38777271D01*
X116038988Y-38777273D01*
X115991083Y-38854643D01*
X115991082Y-38854646D01*
X115984939Y-38864567D01*
X115982795Y-38876039D01*
X115982794Y-38876040D01*
X115977557Y-38904054D01*
X115965008Y-38971189D01*
X115964921Y-38971653D01*
X115932742Y-39034938D01*
X115871457Y-39070780D01*
X115841066Y-39074500D01*
X115609402Y-39074500D01*
X115541281Y-39054498D01*
X115494788Y-39000842D01*
X115484335Y-38963808D01*
X115476680Y-38901266D01*
X115466939Y-38879936D01*
X115456834Y-38809664D01*
X115461804Y-38790694D01*
X115465061Y-38785433D01*
X115478967Y-38711046D01*
X115484635Y-38680725D01*
X115484635Y-38680723D01*
X115485705Y-38675000D01*
X115485705Y-37699713D01*
X115505707Y-37631592D01*
X115559363Y-37585099D01*
X115628151Y-37574791D01*
X115691811Y-37583172D01*
X115691812Y-37583172D01*
X115700000Y-37584250D01*
X115843709Y-37565330D01*
X115977625Y-37509861D01*
X116092621Y-37421621D01*
X116180861Y-37306625D01*
X116186532Y-37292935D01*
X116215668Y-37222592D01*
X116236330Y-37172709D01*
X116255250Y-37029000D01*
X116236330Y-36885291D01*
X116180861Y-36751375D01*
X116092621Y-36636379D01*
X115977625Y-36548139D01*
X115843709Y-36492670D01*
X115790506Y-36485665D01*
X115738824Y-36478861D01*
X115698071Y-36466207D01*
X115689747Y-36461966D01*
X115672893Y-36451639D01*
X115655090Y-36438704D01*
X115634166Y-36431905D01*
X115615906Y-36424341D01*
X115605141Y-36418856D01*
X115605137Y-36418855D01*
X115596304Y-36414354D01*
X115586513Y-36412803D01*
X115586512Y-36412803D01*
X115574578Y-36410913D01*
X115555353Y-36406297D01*
X115543868Y-36402565D01*
X115543864Y-36402564D01*
X115534433Y-36399500D01*
X114868481Y-36399500D01*
X114868477Y-36399501D01*
X114836567Y-36399501D01*
X114827140Y-36402564D01*
X114827133Y-36402565D01*
X114815647Y-36406297D01*
X114796427Y-36410911D01*
X114784493Y-36412801D01*
X114784485Y-36412803D01*
X114774696Y-36414354D01*
X114765865Y-36418854D01*
X114765861Y-36418855D01*
X114755093Y-36424342D01*
X114736832Y-36431906D01*
X114715910Y-36438704D01*
X114700918Y-36449597D01*
X114698116Y-36451632D01*
X114681259Y-36461962D01*
X114670493Y-36467448D01*
X114670492Y-36467449D01*
X114661658Y-36471950D01*
X114639091Y-36494517D01*
X114124516Y-37009091D01*
X114124513Y-37009095D01*
X114101950Y-37031658D01*
X114097446Y-37040498D01*
X114091965Y-37051255D01*
X114081639Y-37068107D01*
X114068704Y-37085910D01*
X114061907Y-37106830D01*
X114054341Y-37125094D01*
X114044354Y-37144695D01*
X114042246Y-37143621D01*
X114009964Y-37190835D01*
X113944569Y-37218473D01*
X113930202Y-37219295D01*
X113680000Y-37219295D01*
X113678558Y-37219362D01*
X113678543Y-37219362D01*
X113666668Y-37219911D01*
X113651793Y-37220599D01*
X113543736Y-37251344D01*
X113534418Y-37258380D01*
X113534419Y-37258380D01*
X113463399Y-37312011D01*
X113463398Y-37312012D01*
X113454081Y-37319048D01*
X113427719Y-37361624D01*
X113401083Y-37404643D01*
X113401082Y-37404646D01*
X113394939Y-37414567D01*
X113392795Y-37426039D01*
X113392794Y-37426040D01*
X113375365Y-37519275D01*
X113374295Y-37525000D01*
X113374295Y-38675000D01*
X113375052Y-38679829D01*
X113375052Y-38679835D01*
X113375528Y-38682872D01*
X113388942Y-38768492D01*
X113394051Y-38777943D01*
X113396563Y-38785385D01*
X113399397Y-38856325D01*
X113398717Y-38858466D01*
X113394939Y-38864567D01*
X113375008Y-38971189D01*
X113374921Y-38971653D01*
X113342742Y-39034938D01*
X113281457Y-39070780D01*
X113251066Y-39074500D01*
X113019402Y-39074500D01*
X112951281Y-39054498D01*
X112904788Y-39000842D01*
X112894335Y-38963808D01*
X112886680Y-38901266D01*
X112876939Y-38879936D01*
X112866834Y-38809664D01*
X112871804Y-38790694D01*
X112875061Y-38785433D01*
X112888967Y-38711046D01*
X112894635Y-38680725D01*
X112894635Y-38680723D01*
X112895705Y-38675000D01*
X112895705Y-37525000D01*
X112895441Y-37519275D01*
X112895005Y-37509861D01*
X112894401Y-37496793D01*
X112879594Y-37444750D01*
X112866851Y-37399965D01*
X112863656Y-37388736D01*
X112828990Y-37342830D01*
X112802989Y-37308399D01*
X112802988Y-37308398D01*
X112795952Y-37299081D01*
X112730217Y-37258380D01*
X112710357Y-37246083D01*
X112710354Y-37246082D01*
X112700433Y-37239939D01*
X112688961Y-37237795D01*
X112688960Y-37237794D01*
X112595725Y-37220365D01*
X112595723Y-37220365D01*
X112590000Y-37219295D01*
X112366500Y-37219295D01*
X112298379Y-37199293D01*
X112251886Y-37145637D01*
X112240500Y-37093295D01*
X112240500Y-37026567D01*
X112237436Y-37017136D01*
X112237435Y-37017132D01*
X112233703Y-37005647D01*
X112229087Y-36986422D01*
X112227197Y-36974488D01*
X112227197Y-36974487D01*
X112225646Y-36964696D01*
X112221145Y-36955863D01*
X112221144Y-36955859D01*
X112215658Y-36945092D01*
X112208092Y-36926828D01*
X112204360Y-36915342D01*
X112201296Y-36905911D01*
X112188365Y-36888113D01*
X112178037Y-36871258D01*
X112172555Y-36860499D01*
X112172554Y-36860497D01*
X112168050Y-36851658D01*
X112145487Y-36829095D01*
X112145484Y-36829091D01*
X111760909Y-36444516D01*
X111760905Y-36444513D01*
X111738342Y-36421950D01*
X111718746Y-36411965D01*
X111701893Y-36401639D01*
X111684090Y-36388704D01*
X111663166Y-36381905D01*
X111644906Y-36374341D01*
X111634141Y-36368856D01*
X111634137Y-36368855D01*
X111625304Y-36364354D01*
X111615513Y-36362803D01*
X111615512Y-36362803D01*
X111603578Y-36360913D01*
X111584353Y-36356297D01*
X111572868Y-36352565D01*
X111572864Y-36352564D01*
X111563433Y-36349500D01*
X107036568Y-36349500D01*
X107027137Y-36352564D01*
X107027133Y-36352565D01*
X107015648Y-36356297D01*
X106996423Y-36360913D01*
X106984489Y-36362803D01*
X106984488Y-36362803D01*
X106974697Y-36364354D01*
X106965864Y-36368855D01*
X106965860Y-36368856D01*
X106955095Y-36374341D01*
X106936835Y-36381905D01*
X106915911Y-36388704D01*
X106898108Y-36401639D01*
X106881255Y-36411965D01*
X106861659Y-36421950D01*
X106839096Y-36444513D01*
X106839092Y-36444516D01*
X106839084Y-36444524D01*
X103561012Y-39722595D01*
X103498700Y-39756621D01*
X103471917Y-39759500D01*
X99555124Y-39759500D01*
X99487003Y-39739498D01*
X99478420Y-39733462D01*
X99464258Y-39722595D01*
X99407625Y-39679139D01*
X99273709Y-39623670D01*
X99130000Y-39604750D01*
X98986291Y-39623670D01*
X98852375Y-39679139D01*
X98737379Y-39767379D01*
X98649139Y-39882375D01*
X98593670Y-40016291D01*
X98574750Y-40160000D01*
X98593670Y-40303709D01*
X98649139Y-40437625D01*
X98737379Y-40552621D01*
X98852375Y-40640861D01*
X98986291Y-40696330D01*
X99130000Y-40715250D01*
X99273709Y-40696330D01*
X99306200Y-40682872D01*
X99377417Y-40653374D01*
X99448007Y-40645785D01*
X99511493Y-40677565D01*
X99547720Y-40738623D01*
X99545186Y-40809575D01*
X99514729Y-40858878D01*
X99023856Y-41349751D01*
X98961544Y-41383777D01*
X98951212Y-41385577D01*
X98862735Y-41397226D01*
X98728819Y-41452695D01*
X98613823Y-41540935D01*
X98525583Y-41655931D01*
X98470114Y-41789847D01*
X98456862Y-41890504D01*
X98454057Y-41911811D01*
X98425335Y-41976738D01*
X98366069Y-42015830D01*
X98295078Y-42016675D01*
X98240040Y-41984460D01*
X96837405Y-40581825D01*
X96803379Y-40519513D01*
X96800500Y-40492730D01*
X96800500Y-39729083D01*
X96800507Y-39727763D01*
X96800969Y-39683647D01*
X96801441Y-39638593D01*
X96792384Y-39596704D01*
X96790324Y-39584126D01*
X96786331Y-39548524D01*
X96786330Y-39548522D01*
X96785546Y-39541528D01*
X96774650Y-39510241D01*
X96770489Y-39495436D01*
X96764977Y-39469939D01*
X96764976Y-39469936D01*
X96763489Y-39463058D01*
X96745370Y-39424201D01*
X96740586Y-39412418D01*
X96726485Y-39371927D01*
X96708930Y-39343833D01*
X96701589Y-39330313D01*
X96690568Y-39306677D01*
X96690567Y-39306676D01*
X96687591Y-39300293D01*
X96661326Y-39266433D01*
X96654031Y-39255976D01*
X96635050Y-39225600D01*
X96635048Y-39225597D01*
X96631316Y-39219625D01*
X96602997Y-39191107D01*
X96602415Y-39190485D01*
X96601901Y-39189823D01*
X96576041Y-39163963D01*
X96504770Y-39092193D01*
X96503743Y-39091541D01*
X96502535Y-39090457D01*
X95612519Y-38200441D01*
X95611590Y-38199503D01*
X95611325Y-38199232D01*
X95549141Y-38135732D01*
X95543221Y-38131917D01*
X95543215Y-38131912D01*
X95513109Y-38112510D01*
X95502755Y-38105070D01*
X95474774Y-38082733D01*
X95469266Y-38078336D01*
X95439441Y-38063918D01*
X95426025Y-38056389D01*
X95404109Y-38042265D01*
X95398183Y-38038446D01*
X95357909Y-38023787D01*
X95346169Y-38018828D01*
X95322365Y-38007321D01*
X95307578Y-38000173D01*
X95300723Y-37998590D01*
X95300719Y-37998589D01*
X95281757Y-37994212D01*
X95275302Y-37992721D01*
X95260554Y-37988352D01*
X95236045Y-37979432D01*
X95236041Y-37979431D01*
X95229422Y-37977022D01*
X95186882Y-37971648D01*
X95174363Y-37969418D01*
X95132589Y-37959774D01*
X95125548Y-37959749D01*
X95125545Y-37959749D01*
X95092418Y-37959633D01*
X95091545Y-37959604D01*
X95090717Y-37959500D01*
X95054262Y-37959500D01*
X95053822Y-37959499D01*
X94956493Y-37959159D01*
X94956490Y-37959159D01*
X94953000Y-37959147D01*
X94951812Y-37959413D01*
X94950200Y-37959500D01*
X91399075Y-37959500D01*
X91370732Y-37956271D01*
X91349451Y-37951358D01*
X91349449Y-37951358D01*
X91342589Y-37949774D01*
X91335548Y-37949749D01*
X91335545Y-37949749D01*
X91302418Y-37949633D01*
X91301545Y-37949604D01*
X91300717Y-37949500D01*
X91264262Y-37949500D01*
X91263822Y-37949499D01*
X91166493Y-37949159D01*
X91166490Y-37949159D01*
X91163000Y-37949147D01*
X91161812Y-37949413D01*
X91160200Y-37949500D01*
X87759083Y-37949500D01*
X87757763Y-37949493D01*
X87756425Y-37949479D01*
X87668593Y-37948559D01*
X87626704Y-37957616D01*
X87614130Y-37959675D01*
X87599523Y-37961314D01*
X87578524Y-37963669D01*
X87578522Y-37963670D01*
X87571528Y-37964454D01*
X87540241Y-37975350D01*
X87525436Y-37979511D01*
X87499944Y-37985022D01*
X87499942Y-37985023D01*
X87493058Y-37986511D01*
X87486673Y-37989488D01*
X87486674Y-37989488D01*
X87454215Y-38004624D01*
X87442404Y-38009420D01*
X87427645Y-38014559D01*
X87408580Y-38021198D01*
X87408578Y-38021199D01*
X87401927Y-38023515D01*
X87373838Y-38041067D01*
X87360319Y-38048407D01*
X87330292Y-38062409D01*
X87324723Y-38066729D01*
X87324721Y-38066730D01*
X87296424Y-38088679D01*
X87285972Y-38095972D01*
X87249625Y-38118684D01*
X87244628Y-38123646D01*
X87244627Y-38123647D01*
X87221107Y-38147003D01*
X87220485Y-38147585D01*
X87219823Y-38148099D01*
X87193963Y-38173959D01*
X87122193Y-38245230D01*
X87121541Y-38246257D01*
X87120457Y-38247465D01*
X85276318Y-40091604D01*
X85214006Y-40125630D01*
X85187223Y-40128509D01*
X83704845Y-40128509D01*
X83571528Y-40143463D01*
X83564875Y-40145780D01*
X83564874Y-40145780D01*
X83524040Y-40160000D01*
X83401927Y-40202524D01*
X83395953Y-40206257D01*
X83395951Y-40206258D01*
X83276919Y-40280638D01*
X83249625Y-40297693D01*
X83231451Y-40315741D01*
X83127190Y-40419276D01*
X83127187Y-40419280D01*
X83122193Y-40424239D01*
X83025963Y-40575873D01*
X83023598Y-40582515D01*
X82968081Y-40738423D01*
X82968080Y-40738428D01*
X82965719Y-40745058D01*
X82964886Y-40752044D01*
X82964885Y-40752048D01*
X82964153Y-40758188D01*
X82944455Y-40923385D01*
X82945191Y-40930388D01*
X82945191Y-40930389D01*
X82962338Y-41093532D01*
X82963227Y-41101992D01*
X82965498Y-41108663D01*
X83016745Y-41259199D01*
X83021103Y-41272002D01*
X83115206Y-41424964D01*
X83120132Y-41429995D01*
X83120135Y-41429998D01*
X83147287Y-41457724D01*
X83240859Y-41553277D01*
X83246784Y-41557096D01*
X83246786Y-41557097D01*
X83321505Y-41605250D01*
X83391817Y-41650563D01*
X83398437Y-41652972D01*
X83398440Y-41652974D01*
X83553961Y-41709579D01*
X83553964Y-41709580D01*
X83560578Y-41711987D01*
X83587121Y-41715340D01*
X83695355Y-41729013D01*
X83695358Y-41729013D01*
X83699283Y-41729509D01*
X85561908Y-41729509D01*
X85563229Y-41729516D01*
X85652398Y-41730450D01*
X85694287Y-41721393D01*
X85706861Y-41719334D01*
X85721468Y-41717695D01*
X85742467Y-41715340D01*
X85742469Y-41715339D01*
X85749463Y-41714555D01*
X85780750Y-41703659D01*
X85795555Y-41699498D01*
X85821052Y-41693986D01*
X85821055Y-41693985D01*
X85827933Y-41692498D01*
X85866790Y-41674379D01*
X85878573Y-41669595D01*
X85919064Y-41655494D01*
X85947158Y-41637939D01*
X85960673Y-41630601D01*
X85990698Y-41616600D01*
X86005330Y-41605250D01*
X86024558Y-41590335D01*
X86035015Y-41583040D01*
X86065391Y-41564059D01*
X86065394Y-41564057D01*
X86071366Y-41560325D01*
X86076364Y-41555362D01*
X86099884Y-41532006D01*
X86100506Y-41531424D01*
X86101168Y-41530910D01*
X86112814Y-41519264D01*
X91627575Y-41519264D01*
X91638789Y-41522614D01*
X91731885Y-41522614D01*
X91747124Y-41518139D01*
X91748329Y-41516749D01*
X91750000Y-41509066D01*
X91750000Y-41504499D01*
X92250000Y-41504499D01*
X92254475Y-41519738D01*
X92255865Y-41520943D01*
X92263548Y-41522614D01*
X92360527Y-41522614D01*
X92371608Y-41519360D01*
X92366875Y-41508957D01*
X92304720Y-41436824D01*
X92291327Y-41425141D01*
X92265203Y-41408208D01*
X92251720Y-41404192D01*
X92250000Y-41412024D01*
X92250000Y-41504499D01*
X91750000Y-41504499D01*
X91750000Y-41416339D01*
X91746027Y-41402808D01*
X91745693Y-41402760D01*
X91738769Y-41405310D01*
X91712940Y-41421607D01*
X91699403Y-41433129D01*
X91632363Y-41509036D01*
X91627575Y-41519264D01*
X86112814Y-41519264D01*
X86127028Y-41505050D01*
X86198798Y-41433779D01*
X86199450Y-41432752D01*
X86200534Y-41431544D01*
X88044673Y-39587405D01*
X88106985Y-39553379D01*
X88133768Y-39550500D01*
X91110925Y-39550500D01*
X91139268Y-39553729D01*
X91160549Y-39558642D01*
X91160551Y-39558642D01*
X91167411Y-39560226D01*
X91174452Y-39560251D01*
X91174455Y-39560251D01*
X91207582Y-39560367D01*
X91208455Y-39560396D01*
X91209283Y-39560500D01*
X91245738Y-39560500D01*
X91246178Y-39560501D01*
X91343507Y-39560841D01*
X91343510Y-39560841D01*
X91347000Y-39560853D01*
X91348188Y-39560587D01*
X91349800Y-39560500D01*
X94656232Y-39560500D01*
X94724353Y-39580502D01*
X94745327Y-39597405D01*
X95162595Y-40014673D01*
X95196621Y-40076985D01*
X95199500Y-40103768D01*
X95199500Y-40867415D01*
X95199493Y-40868735D01*
X95198559Y-40957905D01*
X95207099Y-40997405D01*
X95207615Y-40999790D01*
X95209676Y-41012372D01*
X95211765Y-41030993D01*
X95214454Y-41054970D01*
X95225350Y-41086257D01*
X95229511Y-41101061D01*
X95236511Y-41133440D01*
X95254630Y-41172297D01*
X95259414Y-41184080D01*
X95273515Y-41224571D01*
X95277249Y-41230546D01*
X95291070Y-41252665D01*
X95298408Y-41266180D01*
X95312409Y-41296205D01*
X95316728Y-41301772D01*
X95316728Y-41301773D01*
X95338674Y-41330065D01*
X95345969Y-41340522D01*
X95364950Y-41370898D01*
X95368684Y-41376873D01*
X95373646Y-41381870D01*
X95373647Y-41381871D01*
X95397003Y-41405391D01*
X95397585Y-41406013D01*
X95398099Y-41406675D01*
X95423959Y-41432535D01*
X95495230Y-41504305D01*
X95496257Y-41504957D01*
X95497465Y-41506041D01*
X99584850Y-45593426D01*
X101050985Y-47059560D01*
X101051914Y-47060498D01*
X101114362Y-47124268D01*
X101150407Y-47147498D01*
X101160732Y-47154917D01*
X101194237Y-47181663D01*
X101200577Y-47184728D01*
X101224056Y-47196079D01*
X101237467Y-47203605D01*
X101259396Y-47217737D01*
X101259401Y-47217739D01*
X101265320Y-47221554D01*
X101305602Y-47236216D01*
X101317332Y-47241170D01*
X101355925Y-47259827D01*
X101388201Y-47267279D01*
X101402949Y-47271648D01*
X101427458Y-47280568D01*
X101427462Y-47280569D01*
X101434081Y-47282978D01*
X101476621Y-47288352D01*
X101489140Y-47290582D01*
X101530914Y-47300226D01*
X101537955Y-47300251D01*
X101537958Y-47300251D01*
X101571085Y-47300367D01*
X101571958Y-47300396D01*
X101572786Y-47300500D01*
X101609241Y-47300500D01*
X101609681Y-47300501D01*
X101707010Y-47300841D01*
X101707013Y-47300841D01*
X101710503Y-47300853D01*
X101711691Y-47300587D01*
X101713303Y-47300500D01*
X120399870Y-47300500D01*
X120461340Y-47316512D01*
X120607570Y-47398237D01*
X120789512Y-47457354D01*
X120979472Y-47480005D01*
X120985607Y-47479533D01*
X120985609Y-47479533D01*
X121164071Y-47465801D01*
X121164075Y-47465800D01*
X121170213Y-47465328D01*
X121354472Y-47413882D01*
X121516690Y-47331940D01*
X121586511Y-47319080D01*
X121652202Y-47346009D01*
X121692906Y-47404179D01*
X121699500Y-47444406D01*
X121699500Y-53557839D01*
X121679498Y-53625960D01*
X121625842Y-53672453D01*
X121555568Y-53682557D01*
X121513571Y-53668674D01*
X121385276Y-53599304D01*
X121385273Y-53599303D01*
X121379851Y-53596371D01*
X121255373Y-53557839D01*
X121202988Y-53541623D01*
X121202985Y-53541622D01*
X121197101Y-53539801D01*
X121190976Y-53539157D01*
X121190975Y-53539157D01*
X121012971Y-53520448D01*
X121012970Y-53520448D01*
X121006843Y-53519804D01*
X120889867Y-53530449D01*
X120822466Y-53536583D01*
X120822465Y-53536583D01*
X120816325Y-53537142D01*
X120632803Y-53591156D01*
X120627338Y-53594013D01*
X120468728Y-53676932D01*
X120468724Y-53676935D01*
X120463268Y-53679787D01*
X120314176Y-53799660D01*
X120191207Y-53946208D01*
X120188237Y-53951610D01*
X120188231Y-53951619D01*
X120109896Y-54094109D01*
X120059551Y-54144168D01*
X119990134Y-54159061D01*
X119923685Y-54134060D01*
X119888231Y-54092562D01*
X119819342Y-53963001D01*
X119819341Y-53962999D01*
X119816446Y-53957555D01*
X119700963Y-53815958D01*
X119699430Y-53814078D01*
X119699427Y-53814075D01*
X119695535Y-53809303D01*
X119548132Y-53687361D01*
X119490714Y-53656315D01*
X119385276Y-53599304D01*
X119385273Y-53599303D01*
X119379851Y-53596371D01*
X119255373Y-53557839D01*
X119202988Y-53541623D01*
X119202985Y-53541622D01*
X119197101Y-53539801D01*
X119190976Y-53539157D01*
X119190975Y-53539157D01*
X119012971Y-53520448D01*
X119012970Y-53520448D01*
X119006843Y-53519804D01*
X118889867Y-53530449D01*
X118822466Y-53536583D01*
X118822465Y-53536583D01*
X118816325Y-53537142D01*
X118632803Y-53591156D01*
X118627338Y-53594013D01*
X118468728Y-53676932D01*
X118468724Y-53676935D01*
X118463268Y-53679787D01*
X118314176Y-53799660D01*
X118191207Y-53946208D01*
X118188237Y-53951610D01*
X118188231Y-53951619D01*
X118109896Y-54094109D01*
X118059551Y-54144168D01*
X117990134Y-54159061D01*
X117923685Y-54134060D01*
X117888231Y-54092562D01*
X117819342Y-53963001D01*
X117819341Y-53962999D01*
X117816446Y-53957555D01*
X117700963Y-53815958D01*
X117699430Y-53814078D01*
X117699427Y-53814075D01*
X117695535Y-53809303D01*
X117548132Y-53687361D01*
X117490714Y-53656315D01*
X117385276Y-53599304D01*
X117385273Y-53599303D01*
X117379851Y-53596371D01*
X117255373Y-53557839D01*
X117202988Y-53541623D01*
X117202985Y-53541622D01*
X117197101Y-53539801D01*
X117190976Y-53539157D01*
X117190975Y-53539157D01*
X117012971Y-53520448D01*
X117012970Y-53520448D01*
X117006843Y-53519804D01*
X116889867Y-53530449D01*
X116822466Y-53536583D01*
X116822465Y-53536583D01*
X116816325Y-53537142D01*
X116632803Y-53591156D01*
X116627338Y-53594013D01*
X116468728Y-53676932D01*
X116468724Y-53676935D01*
X116463268Y-53679787D01*
X116314176Y-53799660D01*
X116191207Y-53946208D01*
X116188237Y-53951610D01*
X116188231Y-53951619D01*
X116109896Y-54094109D01*
X116059551Y-54144168D01*
X115990134Y-54159061D01*
X115923685Y-54134060D01*
X115888231Y-54092562D01*
X115819342Y-53963001D01*
X115819341Y-53962999D01*
X115816446Y-53957555D01*
X115700963Y-53815958D01*
X115699430Y-53814078D01*
X115699427Y-53814075D01*
X115695535Y-53809303D01*
X115548132Y-53687361D01*
X115490714Y-53656315D01*
X115385276Y-53599304D01*
X115385273Y-53599303D01*
X115379851Y-53596371D01*
X115255373Y-53557839D01*
X115202988Y-53541623D01*
X115202985Y-53541622D01*
X115197101Y-53539801D01*
X115190976Y-53539157D01*
X115190975Y-53539157D01*
X115012971Y-53520448D01*
X115012970Y-53520448D01*
X115006843Y-53519804D01*
X114889867Y-53530449D01*
X114822466Y-53536583D01*
X114822465Y-53536583D01*
X114816325Y-53537142D01*
X114632803Y-53591156D01*
X114627338Y-53594013D01*
X114468728Y-53676932D01*
X114468724Y-53676935D01*
X114463268Y-53679787D01*
X114314176Y-53799660D01*
X114191207Y-53946208D01*
X114188237Y-53951610D01*
X114188231Y-53951619D01*
X114109896Y-54094109D01*
X114059551Y-54144168D01*
X113990134Y-54159061D01*
X113923685Y-54134060D01*
X113888231Y-54092562D01*
X113819342Y-53963001D01*
X113819341Y-53962999D01*
X113816446Y-53957555D01*
X113700963Y-53815958D01*
X113699430Y-53814078D01*
X113699427Y-53814075D01*
X113695535Y-53809303D01*
X113548132Y-53687361D01*
X113490714Y-53656315D01*
X113385276Y-53599304D01*
X113385273Y-53599303D01*
X113379851Y-53596371D01*
X113255373Y-53557839D01*
X113202988Y-53541623D01*
X113202985Y-53541622D01*
X113197101Y-53539801D01*
X113190976Y-53539157D01*
X113190975Y-53539157D01*
X113012971Y-53520448D01*
X113012970Y-53520448D01*
X113006843Y-53519804D01*
X112889867Y-53530449D01*
X112822466Y-53536583D01*
X112822465Y-53536583D01*
X112816325Y-53537142D01*
X112632803Y-53591156D01*
X112627338Y-53594013D01*
X112468728Y-53676932D01*
X112468724Y-53676935D01*
X112463268Y-53679787D01*
X112314176Y-53799660D01*
X112191207Y-53946208D01*
X112188237Y-53951610D01*
X112188231Y-53951619D01*
X112109896Y-54094109D01*
X112059551Y-54144168D01*
X111990134Y-54159061D01*
X111923685Y-54134060D01*
X111888231Y-54092562D01*
X111819342Y-53963001D01*
X111819341Y-53962999D01*
X111816446Y-53957555D01*
X111700963Y-53815958D01*
X111699430Y-53814078D01*
X111699427Y-53814075D01*
X111695535Y-53809303D01*
X111548132Y-53687361D01*
X111490714Y-53656315D01*
X111385276Y-53599304D01*
X111385273Y-53599303D01*
X111379851Y-53596371D01*
X111255373Y-53557839D01*
X111202988Y-53541623D01*
X111202985Y-53541622D01*
X111197101Y-53539801D01*
X111190976Y-53539157D01*
X111190975Y-53539157D01*
X111012971Y-53520448D01*
X111012970Y-53520448D01*
X111006843Y-53519804D01*
X110889867Y-53530449D01*
X110822466Y-53536583D01*
X110822465Y-53536583D01*
X110816325Y-53537142D01*
X110632803Y-53591156D01*
X110627338Y-53594013D01*
X110468728Y-53676932D01*
X110468724Y-53676935D01*
X110463268Y-53679787D01*
X110314176Y-53799660D01*
X110191207Y-53946208D01*
X110188237Y-53951610D01*
X110188231Y-53951619D01*
X110109896Y-54094109D01*
X110059551Y-54144168D01*
X109990134Y-54159061D01*
X109923685Y-54134060D01*
X109888231Y-54092562D01*
X109819342Y-53963001D01*
X109819341Y-53962999D01*
X109816446Y-53957555D01*
X109700963Y-53815958D01*
X109699430Y-53814078D01*
X109699427Y-53814075D01*
X109695535Y-53809303D01*
X109548132Y-53687361D01*
X109490714Y-53656315D01*
X109385276Y-53599304D01*
X109385273Y-53599303D01*
X109379851Y-53596371D01*
X109255373Y-53557839D01*
X109202988Y-53541623D01*
X109202985Y-53541622D01*
X109197101Y-53539801D01*
X109190976Y-53539157D01*
X109190975Y-53539157D01*
X109012971Y-53520448D01*
X109012970Y-53520448D01*
X109006843Y-53519804D01*
X108889867Y-53530449D01*
X108822466Y-53536583D01*
X108822465Y-53536583D01*
X108816325Y-53537142D01*
X108632803Y-53591156D01*
X108627338Y-53594013D01*
X108468728Y-53676932D01*
X108468724Y-53676935D01*
X108463268Y-53679787D01*
X108314176Y-53799660D01*
X108191207Y-53946208D01*
X108188237Y-53951610D01*
X108188231Y-53951619D01*
X108109896Y-54094109D01*
X108059551Y-54144168D01*
X107990134Y-54159061D01*
X107923685Y-54134060D01*
X107888231Y-54092562D01*
X107819342Y-53963001D01*
X107819341Y-53962999D01*
X107816446Y-53957555D01*
X107700963Y-53815958D01*
X107699430Y-53814078D01*
X107699427Y-53814075D01*
X107695535Y-53809303D01*
X107548132Y-53687361D01*
X107490714Y-53656315D01*
X107385276Y-53599304D01*
X107385273Y-53599303D01*
X107379851Y-53596371D01*
X107255373Y-53557839D01*
X107202988Y-53541623D01*
X107202985Y-53541622D01*
X107197101Y-53539801D01*
X107190976Y-53539157D01*
X107190975Y-53539157D01*
X107012971Y-53520448D01*
X107012970Y-53520448D01*
X107006843Y-53519804D01*
X106889867Y-53530449D01*
X106822466Y-53536583D01*
X106822465Y-53536583D01*
X106816325Y-53537142D01*
X106632803Y-53591156D01*
X106627338Y-53594013D01*
X106468728Y-53676932D01*
X106468724Y-53676935D01*
X106463268Y-53679787D01*
X106314176Y-53799660D01*
X106191207Y-53946208D01*
X106188237Y-53951610D01*
X106188231Y-53951619D01*
X106109896Y-54094109D01*
X106059551Y-54144168D01*
X105990134Y-54159061D01*
X105923685Y-54134060D01*
X105888231Y-54092562D01*
X105819342Y-53963001D01*
X105819341Y-53962999D01*
X105816446Y-53957555D01*
X105700963Y-53815958D01*
X105699430Y-53814078D01*
X105699427Y-53814075D01*
X105695535Y-53809303D01*
X105548132Y-53687361D01*
X105490714Y-53656315D01*
X105385276Y-53599304D01*
X105385273Y-53599303D01*
X105379851Y-53596371D01*
X105255373Y-53557839D01*
X105202988Y-53541623D01*
X105202985Y-53541622D01*
X105197101Y-53539801D01*
X105190976Y-53539157D01*
X105190975Y-53539157D01*
X105012971Y-53520448D01*
X105012970Y-53520448D01*
X105006843Y-53519804D01*
X104889867Y-53530449D01*
X104822466Y-53536583D01*
X104822465Y-53536583D01*
X104816325Y-53537142D01*
X104632803Y-53591156D01*
X104627338Y-53594013D01*
X104468728Y-53676932D01*
X104468724Y-53676935D01*
X104463268Y-53679787D01*
X104314176Y-53799660D01*
X104191207Y-53946208D01*
X104188237Y-53951610D01*
X104188231Y-53951619D01*
X104109896Y-54094109D01*
X104059551Y-54144168D01*
X103990134Y-54159061D01*
X103923685Y-54134060D01*
X103888231Y-54092562D01*
X103819342Y-53963001D01*
X103819341Y-53962999D01*
X103816446Y-53957555D01*
X103700963Y-53815958D01*
X103699430Y-53814078D01*
X103699427Y-53814075D01*
X103695535Y-53809303D01*
X103548132Y-53687361D01*
X103490714Y-53656315D01*
X103385276Y-53599304D01*
X103385273Y-53599303D01*
X103379851Y-53596371D01*
X103255373Y-53557839D01*
X103202988Y-53541623D01*
X103202985Y-53541622D01*
X103197101Y-53539801D01*
X103190976Y-53539157D01*
X103190975Y-53539157D01*
X103012971Y-53520448D01*
X103012970Y-53520448D01*
X103006843Y-53519804D01*
X102889867Y-53530449D01*
X102822466Y-53536583D01*
X102822465Y-53536583D01*
X102816325Y-53537142D01*
X102632803Y-53591156D01*
X102627338Y-53594013D01*
X102468728Y-53676932D01*
X102468724Y-53676935D01*
X102463268Y-53679787D01*
X102314176Y-53799660D01*
X102191207Y-53946208D01*
X102188237Y-53951610D01*
X102188231Y-53951619D01*
X102109896Y-54094109D01*
X102059551Y-54144168D01*
X101990134Y-54159061D01*
X101923685Y-54134060D01*
X101888231Y-54092562D01*
X101819342Y-53963001D01*
X101819341Y-53962999D01*
X101816446Y-53957555D01*
X101700963Y-53815958D01*
X101699430Y-53814078D01*
X101699427Y-53814075D01*
X101695535Y-53809303D01*
X101548132Y-53687361D01*
X101490714Y-53656315D01*
X101385276Y-53599304D01*
X101385273Y-53599303D01*
X101379851Y-53596371D01*
X101255373Y-53557839D01*
X101202988Y-53541623D01*
X101202985Y-53541622D01*
X101197101Y-53539801D01*
X101190976Y-53539157D01*
X101190975Y-53539157D01*
X101012971Y-53520448D01*
X101012970Y-53520448D01*
X101006843Y-53519804D01*
X100889867Y-53530449D01*
X100822466Y-53536583D01*
X100822465Y-53536583D01*
X100816325Y-53537142D01*
X100632803Y-53591156D01*
X100627338Y-53594013D01*
X100468728Y-53676932D01*
X100468724Y-53676935D01*
X100463268Y-53679787D01*
X100314176Y-53799660D01*
X100191207Y-53946208D01*
X100188237Y-53951610D01*
X100188231Y-53951619D01*
X100109896Y-54094109D01*
X100059551Y-54144168D01*
X99990134Y-54159061D01*
X99923685Y-54134060D01*
X99888231Y-54092562D01*
X99819342Y-53963001D01*
X99819341Y-53962999D01*
X99816446Y-53957555D01*
X99700963Y-53815958D01*
X99699430Y-53814078D01*
X99699427Y-53814075D01*
X99695535Y-53809303D01*
X99548132Y-53687361D01*
X99490714Y-53656315D01*
X99385276Y-53599304D01*
X99385273Y-53599303D01*
X99379851Y-53596371D01*
X99255373Y-53557839D01*
X99202988Y-53541623D01*
X99202985Y-53541622D01*
X99197101Y-53539801D01*
X99190976Y-53539157D01*
X99190975Y-53539157D01*
X99012971Y-53520448D01*
X99012970Y-53520448D01*
X99006843Y-53519804D01*
X98889867Y-53530449D01*
X98822466Y-53536583D01*
X98822465Y-53536583D01*
X98816325Y-53537142D01*
X98632803Y-53591156D01*
X98627338Y-53594013D01*
X98468728Y-53676932D01*
X98468724Y-53676935D01*
X98463268Y-53679787D01*
X98314176Y-53799660D01*
X98191207Y-53946208D01*
X98188237Y-53951610D01*
X98188231Y-53951619D01*
X98109896Y-54094109D01*
X98059551Y-54144168D01*
X97990134Y-54159061D01*
X97923685Y-54134060D01*
X97888231Y-54092562D01*
X97819342Y-53963001D01*
X97819341Y-53962999D01*
X97816446Y-53957555D01*
X97700963Y-53815958D01*
X97699430Y-53814078D01*
X97699427Y-53814075D01*
X97695535Y-53809303D01*
X97548132Y-53687361D01*
X97490714Y-53656315D01*
X97385276Y-53599304D01*
X97385273Y-53599303D01*
X97379851Y-53596371D01*
X97255373Y-53557839D01*
X97202988Y-53541623D01*
X97202985Y-53541622D01*
X97197101Y-53539801D01*
X97190976Y-53539157D01*
X97190975Y-53539157D01*
X97012971Y-53520448D01*
X97012970Y-53520448D01*
X97006843Y-53519804D01*
X96889867Y-53530449D01*
X96822466Y-53536583D01*
X96822465Y-53536583D01*
X96816325Y-53537142D01*
X96632803Y-53591156D01*
X96627338Y-53594013D01*
X96468728Y-53676932D01*
X96468724Y-53676935D01*
X96463268Y-53679787D01*
X96314176Y-53799660D01*
X96191207Y-53946208D01*
X96188237Y-53951610D01*
X96188231Y-53951619D01*
X96109896Y-54094109D01*
X96059551Y-54144168D01*
X95990134Y-54159061D01*
X95923685Y-54134060D01*
X95888231Y-54092562D01*
X95819342Y-53963001D01*
X95819341Y-53962999D01*
X95816446Y-53957555D01*
X95700963Y-53815958D01*
X95699430Y-53814078D01*
X95699427Y-53814075D01*
X95695535Y-53809303D01*
X95548132Y-53687361D01*
X95490714Y-53656315D01*
X95385276Y-53599304D01*
X95385273Y-53599303D01*
X95379851Y-53596371D01*
X95255373Y-53557839D01*
X95202988Y-53541623D01*
X95202985Y-53541622D01*
X95197101Y-53539801D01*
X95190976Y-53539157D01*
X95190975Y-53539157D01*
X95012971Y-53520448D01*
X95012970Y-53520448D01*
X95006843Y-53519804D01*
X94889867Y-53530449D01*
X94822466Y-53536583D01*
X94822465Y-53536583D01*
X94816325Y-53537142D01*
X94632803Y-53591156D01*
X94627338Y-53594013D01*
X94468728Y-53676932D01*
X94468724Y-53676935D01*
X94463268Y-53679787D01*
X94314176Y-53799660D01*
X94191207Y-53946208D01*
X94188237Y-53951610D01*
X94188231Y-53951619D01*
X94109896Y-54094109D01*
X94059551Y-54144168D01*
X93990134Y-54159061D01*
X93923685Y-54134060D01*
X93888231Y-54092562D01*
X93819342Y-53963001D01*
X93819341Y-53962999D01*
X93816446Y-53957555D01*
X93700963Y-53815958D01*
X93699430Y-53814078D01*
X93699427Y-53814075D01*
X93695535Y-53809303D01*
X93548132Y-53687361D01*
X93490714Y-53656315D01*
X93385276Y-53599304D01*
X93385273Y-53599303D01*
X93379851Y-53596371D01*
X93255373Y-53557839D01*
X93202988Y-53541623D01*
X93202985Y-53541622D01*
X93197101Y-53539801D01*
X93190976Y-53539157D01*
X93190975Y-53539157D01*
X93012971Y-53520448D01*
X93012970Y-53520448D01*
X93006843Y-53519804D01*
X92889867Y-53530449D01*
X92822466Y-53536583D01*
X92822465Y-53536583D01*
X92816325Y-53537142D01*
X92632803Y-53591156D01*
X92627338Y-53594013D01*
X92468728Y-53676932D01*
X92468724Y-53676935D01*
X92463268Y-53679787D01*
X92314176Y-53799660D01*
X92191207Y-53946208D01*
X92188237Y-53951610D01*
X92188231Y-53951619D01*
X92109896Y-54094109D01*
X92059551Y-54144168D01*
X91990134Y-54159061D01*
X91923685Y-54134060D01*
X91888231Y-54092562D01*
X91819342Y-53963001D01*
X91819341Y-53962999D01*
X91816446Y-53957555D01*
X91700963Y-53815958D01*
X91699430Y-53814078D01*
X91699427Y-53814075D01*
X91695535Y-53809303D01*
X91548132Y-53687361D01*
X91490714Y-53656315D01*
X91385276Y-53599304D01*
X91385273Y-53599303D01*
X91379851Y-53596371D01*
X91255373Y-53557839D01*
X91202988Y-53541623D01*
X91202985Y-53541622D01*
X91197101Y-53539801D01*
X91190976Y-53539157D01*
X91190975Y-53539157D01*
X91012971Y-53520448D01*
X91012970Y-53520448D01*
X91006843Y-53519804D01*
X90889867Y-53530449D01*
X90822466Y-53536583D01*
X90822465Y-53536583D01*
X90816325Y-53537142D01*
X90632803Y-53591156D01*
X90627338Y-53594013D01*
X90468728Y-53676932D01*
X90468724Y-53676935D01*
X90463268Y-53679787D01*
X90314176Y-53799660D01*
X90191207Y-53946208D01*
X90188237Y-53951610D01*
X90188231Y-53951619D01*
X90109896Y-54094109D01*
X90059551Y-54144168D01*
X89990134Y-54159061D01*
X89923685Y-54134060D01*
X89888231Y-54092562D01*
X89819342Y-53963001D01*
X89819341Y-53962999D01*
X89816446Y-53957555D01*
X89700963Y-53815958D01*
X89699430Y-53814078D01*
X89699427Y-53814075D01*
X89695535Y-53809303D01*
X89548132Y-53687361D01*
X89490714Y-53656315D01*
X89385276Y-53599304D01*
X89385273Y-53599303D01*
X89379851Y-53596371D01*
X89255373Y-53557839D01*
X89202988Y-53541623D01*
X89202985Y-53541622D01*
X89197101Y-53539801D01*
X89190976Y-53539157D01*
X89190975Y-53539157D01*
X89012971Y-53520448D01*
X89012970Y-53520448D01*
X89006843Y-53519804D01*
X88889867Y-53530449D01*
X88822466Y-53536583D01*
X88822465Y-53536583D01*
X88816325Y-53537142D01*
X88632803Y-53591156D01*
X88627338Y-53594013D01*
X88468728Y-53676932D01*
X88468724Y-53676935D01*
X88463268Y-53679787D01*
X88314176Y-53799660D01*
X88191207Y-53946208D01*
X88188237Y-53951610D01*
X88188231Y-53951619D01*
X88109896Y-54094109D01*
X88059551Y-54144168D01*
X87990134Y-54159061D01*
X87923685Y-54134060D01*
X87888231Y-54092562D01*
X87819342Y-53963001D01*
X87819341Y-53962999D01*
X87816446Y-53957555D01*
X87700963Y-53815958D01*
X87699430Y-53814078D01*
X87699427Y-53814075D01*
X87695535Y-53809303D01*
X87548132Y-53687361D01*
X87490714Y-53656315D01*
X87385276Y-53599304D01*
X87385273Y-53599303D01*
X87379851Y-53596371D01*
X87255373Y-53557839D01*
X87202988Y-53541623D01*
X87202985Y-53541622D01*
X87197101Y-53539801D01*
X87190976Y-53539157D01*
X87190975Y-53539157D01*
X87012971Y-53520448D01*
X87012970Y-53520448D01*
X87006843Y-53519804D01*
X86889867Y-53530449D01*
X86822466Y-53536583D01*
X86822465Y-53536583D01*
X86816325Y-53537142D01*
X86632803Y-53591156D01*
X86627338Y-53594013D01*
X86468728Y-53676932D01*
X86468724Y-53676935D01*
X86463268Y-53679787D01*
X86314176Y-53799660D01*
X86191207Y-53946208D01*
X86188237Y-53951610D01*
X86188231Y-53951619D01*
X86109896Y-54094109D01*
X86059551Y-54144168D01*
X85990134Y-54159061D01*
X85923685Y-54134060D01*
X85888231Y-54092562D01*
X85819342Y-53963001D01*
X85819341Y-53962999D01*
X85816446Y-53957555D01*
X85700963Y-53815958D01*
X85699430Y-53814078D01*
X85699427Y-53814075D01*
X85695535Y-53809303D01*
X85548132Y-53687361D01*
X85490714Y-53656315D01*
X85385276Y-53599304D01*
X85385273Y-53599303D01*
X85379851Y-53596371D01*
X85255373Y-53557839D01*
X85202988Y-53541623D01*
X85202985Y-53541622D01*
X85197101Y-53539801D01*
X85190976Y-53539157D01*
X85190975Y-53539157D01*
X85012971Y-53520448D01*
X85012970Y-53520448D01*
X85006843Y-53519804D01*
X84889867Y-53530449D01*
X84822466Y-53536583D01*
X84822465Y-53536583D01*
X84816325Y-53537142D01*
X84632803Y-53591156D01*
X84627338Y-53594013D01*
X84468728Y-53676932D01*
X84468724Y-53676935D01*
X84463268Y-53679787D01*
X84314176Y-53799660D01*
X84191207Y-53946208D01*
X84188237Y-53951610D01*
X84188231Y-53951619D01*
X84109896Y-54094109D01*
X84059551Y-54144168D01*
X83990134Y-54159061D01*
X83923685Y-54134060D01*
X83888231Y-54092562D01*
X83819342Y-53963001D01*
X83819341Y-53962999D01*
X83816446Y-53957555D01*
X83700963Y-53815958D01*
X83699430Y-53814078D01*
X83699427Y-53814075D01*
X83695535Y-53809303D01*
X83548132Y-53687361D01*
X83490714Y-53656315D01*
X83385276Y-53599304D01*
X83385273Y-53599303D01*
X83379851Y-53596371D01*
X83255373Y-53557839D01*
X83202988Y-53541623D01*
X83202985Y-53541622D01*
X83197101Y-53539801D01*
X83190976Y-53539157D01*
X83190975Y-53539157D01*
X83012971Y-53520448D01*
X83012970Y-53520448D01*
X83006843Y-53519804D01*
X82889867Y-53530449D01*
X82822466Y-53536583D01*
X82822465Y-53536583D01*
X82816325Y-53537142D01*
X82632803Y-53591156D01*
X82627338Y-53594013D01*
X82468728Y-53676932D01*
X82468724Y-53676935D01*
X82463268Y-53679787D01*
X82314176Y-53799660D01*
X82191207Y-53946208D01*
X82188237Y-53951610D01*
X82188231Y-53951619D01*
X82109896Y-54094109D01*
X82059551Y-54144168D01*
X81990134Y-54159061D01*
X81923685Y-54134060D01*
X81888231Y-54092562D01*
X81819342Y-53963001D01*
X81819341Y-53962999D01*
X81816446Y-53957555D01*
X81700963Y-53815958D01*
X81699430Y-53814078D01*
X81699427Y-53814075D01*
X81695535Y-53809303D01*
X81548132Y-53687361D01*
X81490714Y-53656315D01*
X81385276Y-53599304D01*
X81385273Y-53599303D01*
X81379851Y-53596371D01*
X81255373Y-53557839D01*
X81202988Y-53541623D01*
X81202985Y-53541622D01*
X81197101Y-53539801D01*
X81190976Y-53539157D01*
X81190975Y-53539157D01*
X81012971Y-53520448D01*
X81012970Y-53520448D01*
X81006843Y-53519804D01*
X80889867Y-53530449D01*
X80822466Y-53536583D01*
X80822465Y-53536583D01*
X80816325Y-53537142D01*
X80632803Y-53591156D01*
X80627338Y-53594013D01*
X80468728Y-53676932D01*
X80468724Y-53676935D01*
X80463268Y-53679787D01*
X80314176Y-53799660D01*
X80191207Y-53946208D01*
X80188237Y-53951610D01*
X80188231Y-53951619D01*
X80109896Y-54094109D01*
X80059551Y-54144168D01*
X79990134Y-54159061D01*
X79923685Y-54134060D01*
X79888231Y-54092562D01*
X79819342Y-53963001D01*
X79819341Y-53962999D01*
X79816446Y-53957555D01*
X79700963Y-53815958D01*
X79699430Y-53814078D01*
X79699427Y-53814075D01*
X79695535Y-53809303D01*
X79548132Y-53687361D01*
X79490714Y-53656315D01*
X79385276Y-53599304D01*
X79385273Y-53599303D01*
X79379851Y-53596371D01*
X79255373Y-53557839D01*
X79202988Y-53541623D01*
X79202985Y-53541622D01*
X79197101Y-53539801D01*
X79190976Y-53539157D01*
X79190975Y-53539157D01*
X79012971Y-53520448D01*
X79012970Y-53520448D01*
X79006843Y-53519804D01*
X78889867Y-53530449D01*
X78822466Y-53536583D01*
X78822465Y-53536583D01*
X78816325Y-53537142D01*
X78632803Y-53591156D01*
X78627338Y-53594013D01*
X78468728Y-53676932D01*
X78468724Y-53676935D01*
X78463268Y-53679787D01*
X78314176Y-53799660D01*
X78191207Y-53946208D01*
X78188237Y-53951610D01*
X78188231Y-53951619D01*
X78109896Y-54094109D01*
X78059551Y-54144168D01*
X77990134Y-54159061D01*
X77923685Y-54134060D01*
X77888231Y-54092562D01*
X77819342Y-53963001D01*
X77819341Y-53962999D01*
X77816446Y-53957555D01*
X77700963Y-53815958D01*
X77699430Y-53814078D01*
X77699427Y-53814075D01*
X77695535Y-53809303D01*
X77548132Y-53687361D01*
X77490714Y-53656315D01*
X77385276Y-53599304D01*
X77385273Y-53599303D01*
X77379851Y-53596371D01*
X77255373Y-53557839D01*
X77202988Y-53541623D01*
X77202985Y-53541622D01*
X77197101Y-53539801D01*
X77190976Y-53539157D01*
X77190975Y-53539157D01*
X77012971Y-53520448D01*
X77012970Y-53520448D01*
X77006843Y-53519804D01*
X76889867Y-53530449D01*
X76822466Y-53536583D01*
X76822465Y-53536583D01*
X76816325Y-53537142D01*
X76632803Y-53591156D01*
X76627338Y-53594013D01*
X76468728Y-53676932D01*
X76468724Y-53676935D01*
X76463268Y-53679787D01*
X76314176Y-53799660D01*
X76191207Y-53946208D01*
X76188237Y-53951610D01*
X76188231Y-53951619D01*
X76109896Y-54094109D01*
X76059551Y-54144168D01*
X75990134Y-54159061D01*
X75923685Y-54134060D01*
X75888231Y-54092562D01*
X75819342Y-53963001D01*
X75819341Y-53962999D01*
X75816446Y-53957555D01*
X75700963Y-53815958D01*
X75699430Y-53814078D01*
X75699427Y-53814075D01*
X75695535Y-53809303D01*
X75548132Y-53687361D01*
X75490714Y-53656315D01*
X75385276Y-53599304D01*
X75385273Y-53599303D01*
X75379851Y-53596371D01*
X75255373Y-53557839D01*
X75202988Y-53541623D01*
X75202985Y-53541622D01*
X75197101Y-53539801D01*
X75190976Y-53539157D01*
X75190975Y-53539157D01*
X75012971Y-53520448D01*
X75012970Y-53520448D01*
X75006843Y-53519804D01*
X74889867Y-53530449D01*
X74822466Y-53536583D01*
X74822465Y-53536583D01*
X74816325Y-53537142D01*
X74632803Y-53591156D01*
X74627338Y-53594013D01*
X74468728Y-53676932D01*
X74468724Y-53676935D01*
X74463268Y-53679787D01*
X74314176Y-53799660D01*
X74191207Y-53946208D01*
X74188237Y-53951610D01*
X74188231Y-53951619D01*
X74109896Y-54094109D01*
X74059551Y-54144168D01*
X73990134Y-54159061D01*
X73923685Y-54134060D01*
X73888231Y-54092562D01*
X73819342Y-53963001D01*
X73819341Y-53962999D01*
X73816446Y-53957555D01*
X73700963Y-53815958D01*
X73699430Y-53814078D01*
X73699427Y-53814075D01*
X73695535Y-53809303D01*
X73548132Y-53687361D01*
X73490714Y-53656315D01*
X73385276Y-53599304D01*
X73385273Y-53599303D01*
X73379851Y-53596371D01*
X73255373Y-53557839D01*
X73202988Y-53541623D01*
X73202985Y-53541622D01*
X73197101Y-53539801D01*
X73190976Y-53539157D01*
X73190975Y-53539157D01*
X73012971Y-53520448D01*
X73012970Y-53520448D01*
X73006843Y-53519804D01*
X72889867Y-53530449D01*
X72822466Y-53536583D01*
X72822465Y-53536583D01*
X72816325Y-53537142D01*
X72632803Y-53591156D01*
X72627338Y-53594013D01*
X72468728Y-53676932D01*
X72468724Y-53676935D01*
X72463268Y-53679787D01*
X72314176Y-53799660D01*
X72191207Y-53946208D01*
X72188237Y-53951610D01*
X72188231Y-53951619D01*
X72109896Y-54094109D01*
X72059551Y-54144168D01*
X71990134Y-54159061D01*
X71923685Y-54134060D01*
X71888231Y-54092562D01*
X71819342Y-53963001D01*
X71819341Y-53962999D01*
X71816446Y-53957555D01*
X71700963Y-53815958D01*
X71699430Y-53814078D01*
X71699427Y-53814075D01*
X71695535Y-53809303D01*
X71548132Y-53687361D01*
X71490714Y-53656315D01*
X71385276Y-53599304D01*
X71385273Y-53599303D01*
X71379851Y-53596371D01*
X71255373Y-53557839D01*
X71202988Y-53541623D01*
X71202985Y-53541622D01*
X71197101Y-53539801D01*
X71190976Y-53539157D01*
X71190975Y-53539157D01*
X71012971Y-53520448D01*
X71012970Y-53520448D01*
X71006843Y-53519804D01*
X70889867Y-53530449D01*
X70822466Y-53536583D01*
X70822465Y-53536583D01*
X70816325Y-53537142D01*
X70632803Y-53591156D01*
X70627338Y-53594013D01*
X70468728Y-53676932D01*
X70468724Y-53676935D01*
X70463268Y-53679787D01*
X70314176Y-53799660D01*
X70191207Y-53946208D01*
X70188237Y-53951610D01*
X70188231Y-53951619D01*
X70109896Y-54094109D01*
X70059551Y-54144168D01*
X69990134Y-54159061D01*
X69923685Y-54134060D01*
X69888231Y-54092562D01*
X69819342Y-53963001D01*
X69819341Y-53962999D01*
X69816446Y-53957555D01*
X69700963Y-53815958D01*
X69699430Y-53814078D01*
X69699427Y-53814075D01*
X69695535Y-53809303D01*
X69548132Y-53687361D01*
X69490714Y-53656315D01*
X69385276Y-53599304D01*
X69385273Y-53599303D01*
X69379851Y-53596371D01*
X69255373Y-53557839D01*
X69202988Y-53541623D01*
X69202985Y-53541622D01*
X69197101Y-53539801D01*
X69190976Y-53539157D01*
X69190975Y-53539157D01*
X69012971Y-53520448D01*
X69012970Y-53520448D01*
X69006843Y-53519804D01*
X68889867Y-53530449D01*
X68822466Y-53536583D01*
X68822465Y-53536583D01*
X68816325Y-53537142D01*
X68632803Y-53591156D01*
X68627338Y-53594013D01*
X68468728Y-53676932D01*
X68468724Y-53676935D01*
X68463268Y-53679787D01*
X68314176Y-53799660D01*
X68191207Y-53946208D01*
X68188237Y-53951610D01*
X68188231Y-53951619D01*
X68109896Y-54094109D01*
X68059551Y-54144168D01*
X67990134Y-54159061D01*
X67923685Y-54134060D01*
X67888231Y-54092562D01*
X67819342Y-53963001D01*
X67819341Y-53962999D01*
X67816446Y-53957555D01*
X67700963Y-53815958D01*
X67699430Y-53814078D01*
X67699427Y-53814075D01*
X67695535Y-53809303D01*
X67548132Y-53687361D01*
X67490714Y-53656315D01*
X67385276Y-53599304D01*
X67385273Y-53599303D01*
X67379851Y-53596371D01*
X67255373Y-53557839D01*
X67202988Y-53541623D01*
X67202985Y-53541622D01*
X67197101Y-53539801D01*
X67190976Y-53539157D01*
X67190975Y-53539157D01*
X67012971Y-53520448D01*
X67012970Y-53520448D01*
X67006843Y-53519804D01*
X66889867Y-53530449D01*
X66822466Y-53536583D01*
X66822465Y-53536583D01*
X66816325Y-53537142D01*
X66632803Y-53591156D01*
X66627338Y-53594013D01*
X66468728Y-53676932D01*
X66468724Y-53676935D01*
X66463268Y-53679787D01*
X66314176Y-53799660D01*
X66191207Y-53946208D01*
X66188237Y-53951610D01*
X66188231Y-53951619D01*
X66109896Y-54094109D01*
X66059551Y-54144168D01*
X65990134Y-54159061D01*
X65923685Y-54134060D01*
X65888231Y-54092562D01*
X65819342Y-53963001D01*
X65819341Y-53962999D01*
X65816446Y-53957555D01*
X65700963Y-53815958D01*
X65699430Y-53814078D01*
X65699427Y-53814075D01*
X65695535Y-53809303D01*
X65548132Y-53687361D01*
X65490714Y-53656315D01*
X65385276Y-53599304D01*
X65385273Y-53599303D01*
X65379851Y-53596371D01*
X65255373Y-53557839D01*
X65202988Y-53541623D01*
X65202985Y-53541622D01*
X65197101Y-53539801D01*
X65190976Y-53539157D01*
X65190975Y-53539157D01*
X65012971Y-53520448D01*
X65012970Y-53520448D01*
X65006843Y-53519804D01*
X64889867Y-53530449D01*
X64822466Y-53536583D01*
X64822465Y-53536583D01*
X64816325Y-53537142D01*
X64632803Y-53591156D01*
X64627338Y-53594013D01*
X64468728Y-53676932D01*
X64468724Y-53676935D01*
X64463268Y-53679787D01*
X64314176Y-53799660D01*
X64191207Y-53946208D01*
X64188237Y-53951610D01*
X64188231Y-53951619D01*
X64109896Y-54094109D01*
X64059551Y-54144168D01*
X63990134Y-54159061D01*
X63923685Y-54134060D01*
X63888231Y-54092562D01*
X63819342Y-53963001D01*
X63819341Y-53962999D01*
X63816446Y-53957555D01*
X63700963Y-53815958D01*
X63699430Y-53814078D01*
X63699427Y-53814075D01*
X63695535Y-53809303D01*
X63548132Y-53687361D01*
X63490714Y-53656315D01*
X63385276Y-53599304D01*
X63385273Y-53599303D01*
X63379851Y-53596371D01*
X63255373Y-53557839D01*
X63202988Y-53541623D01*
X63202985Y-53541622D01*
X63197101Y-53539801D01*
X63190976Y-53539157D01*
X63190975Y-53539157D01*
X63012971Y-53520448D01*
X63012970Y-53520448D01*
X63006843Y-53519804D01*
X62889867Y-53530449D01*
X62822466Y-53536583D01*
X62822465Y-53536583D01*
X62816325Y-53537142D01*
X62632803Y-53591156D01*
X62627338Y-53594013D01*
X62484875Y-53668491D01*
X62415240Y-53682325D01*
X62349179Y-53656315D01*
X62307667Y-53598719D01*
X62300500Y-53556829D01*
X62300500Y-47441383D01*
X62320502Y-47373262D01*
X62374158Y-47326769D01*
X62444432Y-47316665D01*
X62487970Y-47331395D01*
X62607570Y-47398237D01*
X62789512Y-47457354D01*
X62979472Y-47480005D01*
X62985607Y-47479533D01*
X62985609Y-47479533D01*
X63164071Y-47465801D01*
X63164075Y-47465800D01*
X63170213Y-47465328D01*
X63354472Y-47413882D01*
X63525228Y-47327627D01*
X63554309Y-47304907D01*
X63671129Y-47213637D01*
X63675979Y-47209848D01*
X63746557Y-47128083D01*
X63796958Y-47069692D01*
X63796959Y-47069691D01*
X63800982Y-47065030D01*
X63804090Y-47059560D01*
X63892429Y-46904054D01*
X63895476Y-46898691D01*
X63955861Y-46717166D01*
X63970978Y-46597504D01*
X63979396Y-46530872D01*
X63979397Y-46530863D01*
X63979838Y-46527369D01*
X63980220Y-46500000D01*
X63978329Y-46480711D01*
X91629029Y-46480711D01*
X91633583Y-46490884D01*
X91691197Y-46559424D01*
X91704453Y-46571277D01*
X91734919Y-46591557D01*
X91748160Y-46595678D01*
X91750000Y-46587537D01*
X91750000Y-46583867D01*
X92250000Y-46583867D01*
X92253973Y-46597398D01*
X92254712Y-46597504D01*
X92260985Y-46595238D01*
X92282750Y-46581874D01*
X92296428Y-46570518D01*
X92370879Y-46488265D01*
X92372311Y-46486142D01*
X92373375Y-46479779D01*
X92370016Y-46477510D01*
X92369217Y-46477386D01*
X92268115Y-46477386D01*
X92252876Y-46481861D01*
X92251671Y-46483251D01*
X92250000Y-46490934D01*
X92250000Y-46583867D01*
X91750000Y-46583867D01*
X91750000Y-46495501D01*
X91745525Y-46480262D01*
X91744135Y-46479057D01*
X91736452Y-46477386D01*
X91640352Y-46477386D01*
X91629029Y-46480711D01*
X63978329Y-46480711D01*
X63961552Y-46309608D01*
X63906259Y-46126467D01*
X63903366Y-46121026D01*
X63819342Y-45963001D01*
X63819341Y-45962999D01*
X63816446Y-45957555D01*
X63742425Y-45866796D01*
X63699430Y-45814078D01*
X63699427Y-45814075D01*
X63695535Y-45809303D01*
X63627524Y-45753039D01*
X63609646Y-45738249D01*
X90886567Y-45738249D01*
X90891121Y-45748422D01*
X90948735Y-45816962D01*
X90961991Y-45828815D01*
X90992457Y-45849095D01*
X91005698Y-45853216D01*
X91007538Y-45845075D01*
X91007538Y-45841405D01*
X91507538Y-45841405D01*
X91511511Y-45854936D01*
X91516728Y-45855686D01*
X91581309Y-45885179D01*
X91619692Y-45944905D01*
X91623677Y-45963649D01*
X91624966Y-45973256D01*
X91638789Y-45977386D01*
X91731885Y-45977386D01*
X91747124Y-45972911D01*
X91748329Y-45971521D01*
X91750000Y-45963838D01*
X91750000Y-45959271D01*
X92250000Y-45959271D01*
X92254475Y-45974510D01*
X92255865Y-45975715D01*
X92263548Y-45977386D01*
X92360527Y-45977386D01*
X92374058Y-45973413D01*
X92375335Y-45964529D01*
X92404828Y-45899948D01*
X92466504Y-45861009D01*
X92489660Y-45854613D01*
X92490525Y-45853647D01*
X92492462Y-45845075D01*
X92492462Y-45841405D01*
X92992462Y-45841405D01*
X92996435Y-45854936D01*
X92997174Y-45855042D01*
X93003447Y-45852776D01*
X93025212Y-45839412D01*
X93038890Y-45828056D01*
X93113341Y-45745803D01*
X93114773Y-45743680D01*
X93115837Y-45737317D01*
X93112478Y-45735048D01*
X93111679Y-45734924D01*
X93010577Y-45734924D01*
X92995338Y-45739399D01*
X92994133Y-45740789D01*
X92992462Y-45748472D01*
X92992462Y-45841405D01*
X92492462Y-45841405D01*
X92492462Y-45753039D01*
X92487987Y-45737800D01*
X92486597Y-45736595D01*
X92478914Y-45734924D01*
X92382814Y-45734924D01*
X92369284Y-45738897D01*
X92368103Y-45747114D01*
X92338610Y-45811695D01*
X92278413Y-45850216D01*
X92252858Y-45857612D01*
X92251734Y-45858899D01*
X92250000Y-45866796D01*
X92250000Y-45959271D01*
X91750000Y-45959271D01*
X91750000Y-45871111D01*
X91746027Y-45857580D01*
X91741582Y-45856941D01*
X91677001Y-45827448D01*
X91638618Y-45767722D01*
X91637578Y-45750399D01*
X91632390Y-45738315D01*
X91627554Y-45735048D01*
X91626755Y-45734924D01*
X91525653Y-45734924D01*
X91510414Y-45739399D01*
X91509209Y-45740789D01*
X91507538Y-45748472D01*
X91507538Y-45841405D01*
X91007538Y-45841405D01*
X91007538Y-45753039D01*
X91003063Y-45737800D01*
X91001673Y-45736595D01*
X90993990Y-45734924D01*
X90897890Y-45734924D01*
X90886567Y-45738249D01*
X63609646Y-45738249D01*
X63552879Y-45691288D01*
X63548132Y-45687361D01*
X63405107Y-45610027D01*
X63354701Y-45560035D01*
X63339324Y-45490724D01*
X63363860Y-45424102D01*
X63408228Y-45386728D01*
X63459349Y-45360905D01*
X63525228Y-45327627D01*
X63554309Y-45304907D01*
X63661224Y-45221376D01*
X63675979Y-45209848D01*
X63721177Y-45157486D01*
X63796958Y-45069692D01*
X63796959Y-45069691D01*
X63800982Y-45065030D01*
X63840318Y-44995787D01*
X90144105Y-44995787D01*
X90148659Y-45005960D01*
X90206273Y-45074500D01*
X90219529Y-45086353D01*
X90249995Y-45106633D01*
X90263236Y-45110754D01*
X90265076Y-45102613D01*
X90265076Y-45098943D01*
X90765076Y-45098943D01*
X90769049Y-45112474D01*
X90774266Y-45113224D01*
X90838847Y-45142717D01*
X90877230Y-45202443D01*
X90881215Y-45221187D01*
X90882504Y-45230794D01*
X90896327Y-45234924D01*
X90989423Y-45234924D01*
X91004662Y-45230449D01*
X91005867Y-45229059D01*
X91007538Y-45221376D01*
X91007538Y-45216809D01*
X91507538Y-45216809D01*
X91512013Y-45232048D01*
X91513403Y-45233253D01*
X91521086Y-45234924D01*
X91618065Y-45234924D01*
X91631596Y-45230951D01*
X91632873Y-45222067D01*
X91662366Y-45157486D01*
X91724042Y-45118547D01*
X91747198Y-45112151D01*
X91748063Y-45111185D01*
X91750000Y-45102613D01*
X91750000Y-45098943D01*
X92250000Y-45098943D01*
X92253973Y-45112474D01*
X92259190Y-45113224D01*
X92323771Y-45142717D01*
X92362154Y-45202443D01*
X92366139Y-45221187D01*
X92367428Y-45230794D01*
X92381251Y-45234924D01*
X92474347Y-45234924D01*
X92489586Y-45230449D01*
X92490791Y-45229059D01*
X92492462Y-45221376D01*
X92492462Y-45216809D01*
X92992462Y-45216809D01*
X92996937Y-45232048D01*
X92998327Y-45233253D01*
X93006010Y-45234924D01*
X93102989Y-45234924D01*
X93116520Y-45230951D01*
X93117797Y-45222067D01*
X93147290Y-45157486D01*
X93208966Y-45118547D01*
X93232122Y-45112151D01*
X93232987Y-45111185D01*
X93234924Y-45102613D01*
X93234924Y-45098943D01*
X93734924Y-45098943D01*
X93738897Y-45112474D01*
X93739636Y-45112580D01*
X93745909Y-45110314D01*
X93767674Y-45096950D01*
X93781352Y-45085594D01*
X93855803Y-45003341D01*
X93857235Y-45001218D01*
X93858299Y-44994855D01*
X93854940Y-44992586D01*
X93854141Y-44992462D01*
X93753039Y-44992462D01*
X93737800Y-44996937D01*
X93736595Y-44998327D01*
X93734924Y-45006010D01*
X93734924Y-45098943D01*
X93234924Y-45098943D01*
X93234924Y-45010577D01*
X93230449Y-44995338D01*
X93229059Y-44994133D01*
X93221376Y-44992462D01*
X93125276Y-44992462D01*
X93111746Y-44996435D01*
X93110565Y-45004652D01*
X93081072Y-45069233D01*
X93020875Y-45107754D01*
X92995320Y-45115150D01*
X92994196Y-45116437D01*
X92992462Y-45124334D01*
X92992462Y-45216809D01*
X92492462Y-45216809D01*
X92492462Y-45128649D01*
X92488489Y-45115118D01*
X92484044Y-45114479D01*
X92419463Y-45084986D01*
X92381080Y-45025260D01*
X92380040Y-45007937D01*
X92374852Y-44995853D01*
X92370016Y-44992586D01*
X92369217Y-44992462D01*
X92268115Y-44992462D01*
X92252876Y-44996937D01*
X92251671Y-44998327D01*
X92250000Y-45006010D01*
X92250000Y-45098943D01*
X91750000Y-45098943D01*
X91750000Y-45010577D01*
X91745525Y-44995338D01*
X91744135Y-44994133D01*
X91736452Y-44992462D01*
X91640352Y-44992462D01*
X91626822Y-44996435D01*
X91625641Y-45004652D01*
X91596148Y-45069233D01*
X91535951Y-45107754D01*
X91510396Y-45115150D01*
X91509272Y-45116437D01*
X91507538Y-45124334D01*
X91507538Y-45216809D01*
X91007538Y-45216809D01*
X91007538Y-45128649D01*
X91003565Y-45115118D01*
X90999120Y-45114479D01*
X90934539Y-45084986D01*
X90896156Y-45025260D01*
X90895116Y-45007937D01*
X90889928Y-44995853D01*
X90885092Y-44992586D01*
X90884293Y-44992462D01*
X90783191Y-44992462D01*
X90767952Y-44996937D01*
X90766747Y-44998327D01*
X90765076Y-45006010D01*
X90765076Y-45098943D01*
X90265076Y-45098943D01*
X90265076Y-45010577D01*
X90260601Y-44995338D01*
X90259211Y-44994133D01*
X90251528Y-44992462D01*
X90155428Y-44992462D01*
X90144105Y-44995787D01*
X63840318Y-44995787D01*
X63895476Y-44898691D01*
X63955861Y-44717166D01*
X63968008Y-44621012D01*
X63979396Y-44530872D01*
X63979397Y-44530863D01*
X63979838Y-44527369D01*
X63980220Y-44500000D01*
X63961552Y-44309608D01*
X63944559Y-44253325D01*
X89401643Y-44253325D01*
X89406197Y-44263498D01*
X89463811Y-44332038D01*
X89477067Y-44343891D01*
X89507533Y-44364171D01*
X89520774Y-44368292D01*
X89522614Y-44360151D01*
X89522614Y-44356481D01*
X90022614Y-44356481D01*
X90026587Y-44370012D01*
X90031804Y-44370762D01*
X90096385Y-44400255D01*
X90134768Y-44459981D01*
X90138753Y-44478725D01*
X90140042Y-44488332D01*
X90153865Y-44492462D01*
X90246961Y-44492462D01*
X90262200Y-44487987D01*
X90263405Y-44486597D01*
X90265076Y-44478914D01*
X90265076Y-44474347D01*
X90765076Y-44474347D01*
X90769551Y-44489586D01*
X90770941Y-44490791D01*
X90778624Y-44492462D01*
X90875603Y-44492462D01*
X90889134Y-44488489D01*
X90890411Y-44479605D01*
X90919904Y-44415024D01*
X90981580Y-44376085D01*
X91004736Y-44369689D01*
X91005601Y-44368723D01*
X91007538Y-44360151D01*
X91007538Y-44356481D01*
X91507538Y-44356481D01*
X91511511Y-44370012D01*
X91516728Y-44370762D01*
X91581309Y-44400255D01*
X91619692Y-44459981D01*
X91623677Y-44478725D01*
X91624966Y-44488332D01*
X91638789Y-44492462D01*
X91731885Y-44492462D01*
X91747124Y-44487987D01*
X91748329Y-44486597D01*
X91750000Y-44478914D01*
X91750000Y-44474347D01*
X92250000Y-44474347D01*
X92254475Y-44489586D01*
X92255865Y-44490791D01*
X92263548Y-44492462D01*
X92360527Y-44492462D01*
X92374058Y-44488489D01*
X92375335Y-44479605D01*
X92404828Y-44415024D01*
X92466504Y-44376085D01*
X92489660Y-44369689D01*
X92490525Y-44368723D01*
X92492462Y-44360151D01*
X92492462Y-44356481D01*
X92992462Y-44356481D01*
X92996435Y-44370012D01*
X93001652Y-44370762D01*
X93066233Y-44400255D01*
X93104616Y-44459981D01*
X93108601Y-44478725D01*
X93109890Y-44488332D01*
X93123713Y-44492462D01*
X93216809Y-44492462D01*
X93232048Y-44487987D01*
X93233253Y-44486597D01*
X93234924Y-44478914D01*
X93234924Y-44474347D01*
X93734924Y-44474347D01*
X93739399Y-44489586D01*
X93740789Y-44490791D01*
X93748472Y-44492462D01*
X93845451Y-44492462D01*
X93858982Y-44488489D01*
X93860259Y-44479605D01*
X93889752Y-44415024D01*
X93951428Y-44376085D01*
X93974584Y-44369689D01*
X93975449Y-44368723D01*
X93977386Y-44360151D01*
X93977386Y-44356481D01*
X94477386Y-44356481D01*
X94481359Y-44370012D01*
X94482098Y-44370118D01*
X94488371Y-44367852D01*
X94510136Y-44354488D01*
X94523814Y-44343132D01*
X94598265Y-44260879D01*
X94599697Y-44258756D01*
X94600761Y-44252393D01*
X94597402Y-44250124D01*
X94596603Y-44250000D01*
X94495501Y-44250000D01*
X94480262Y-44254475D01*
X94479057Y-44255865D01*
X94477386Y-44263548D01*
X94477386Y-44356481D01*
X93977386Y-44356481D01*
X93977386Y-44268115D01*
X93972911Y-44252876D01*
X93971521Y-44251671D01*
X93963838Y-44250000D01*
X93867738Y-44250000D01*
X93854208Y-44253973D01*
X93853027Y-44262190D01*
X93823534Y-44326771D01*
X93763337Y-44365292D01*
X93737782Y-44372688D01*
X93736658Y-44373975D01*
X93734924Y-44381872D01*
X93734924Y-44474347D01*
X93234924Y-44474347D01*
X93234924Y-44386187D01*
X93230951Y-44372656D01*
X93226506Y-44372017D01*
X93161925Y-44342524D01*
X93123542Y-44282798D01*
X93122502Y-44265475D01*
X93117314Y-44253391D01*
X93112478Y-44250124D01*
X93111679Y-44250000D01*
X93010577Y-44250000D01*
X92995338Y-44254475D01*
X92994133Y-44255865D01*
X92992462Y-44263548D01*
X92992462Y-44356481D01*
X92492462Y-44356481D01*
X92492462Y-44268115D01*
X92487987Y-44252876D01*
X92486597Y-44251671D01*
X92478914Y-44250000D01*
X92382814Y-44250000D01*
X92369284Y-44253973D01*
X92368103Y-44262190D01*
X92338610Y-44326771D01*
X92278413Y-44365292D01*
X92252858Y-44372688D01*
X92251734Y-44373975D01*
X92250000Y-44381872D01*
X92250000Y-44474347D01*
X91750000Y-44474347D01*
X91750000Y-44386187D01*
X91746027Y-44372656D01*
X91741582Y-44372017D01*
X91677001Y-44342524D01*
X91638618Y-44282798D01*
X91637578Y-44265475D01*
X91632390Y-44253391D01*
X91627554Y-44250124D01*
X91626755Y-44250000D01*
X91525653Y-44250000D01*
X91510414Y-44254475D01*
X91509209Y-44255865D01*
X91507538Y-44263548D01*
X91507538Y-44356481D01*
X91007538Y-44356481D01*
X91007538Y-44268115D01*
X91003063Y-44252876D01*
X91001673Y-44251671D01*
X90993990Y-44250000D01*
X90897890Y-44250000D01*
X90884360Y-44253973D01*
X90883179Y-44262190D01*
X90853686Y-44326771D01*
X90793489Y-44365292D01*
X90767934Y-44372688D01*
X90766810Y-44373975D01*
X90765076Y-44381872D01*
X90765076Y-44474347D01*
X90265076Y-44474347D01*
X90265076Y-44386187D01*
X90261103Y-44372656D01*
X90256658Y-44372017D01*
X90192077Y-44342524D01*
X90153694Y-44282798D01*
X90152654Y-44265475D01*
X90147466Y-44253391D01*
X90142630Y-44250124D01*
X90141831Y-44250000D01*
X90040729Y-44250000D01*
X90025490Y-44254475D01*
X90024285Y-44255865D01*
X90022614Y-44263548D01*
X90022614Y-44356481D01*
X89522614Y-44356481D01*
X89522614Y-44268115D01*
X89518139Y-44252876D01*
X89516749Y-44251671D01*
X89509066Y-44250000D01*
X89412966Y-44250000D01*
X89401643Y-44253325D01*
X63944559Y-44253325D01*
X63906259Y-44126467D01*
X63816446Y-43957555D01*
X63756562Y-43884130D01*
X63699430Y-43814078D01*
X63699427Y-43814075D01*
X63695535Y-43809303D01*
X63653768Y-43774750D01*
X63552879Y-43691288D01*
X63548132Y-43687361D01*
X63405107Y-43610027D01*
X63354701Y-43560035D01*
X63339324Y-43490724D01*
X63363860Y-43424102D01*
X63408228Y-43386728D01*
X63498081Y-43341340D01*
X63525228Y-43327627D01*
X63530392Y-43323593D01*
X63671129Y-43213637D01*
X63675979Y-43209848D01*
X63693112Y-43190000D01*
X63796958Y-43069692D01*
X63796959Y-43069691D01*
X63800982Y-43065030D01*
X63895476Y-42898691D01*
X63955861Y-42717166D01*
X63963483Y-42656831D01*
X63979396Y-42530872D01*
X63979397Y-42530863D01*
X63979838Y-42527369D01*
X63980220Y-42500000D01*
X63973728Y-42433789D01*
X70595996Y-42433789D01*
X70596196Y-42439118D01*
X70596196Y-42439119D01*
X70597351Y-42469886D01*
X70604913Y-42671295D01*
X70653719Y-42903904D01*
X70655677Y-42908863D01*
X70655678Y-42908865D01*
X70704925Y-43033564D01*
X70741020Y-43124963D01*
X70743787Y-43129522D01*
X70743788Y-43129525D01*
X70794829Y-43213637D01*
X70864319Y-43328153D01*
X70867816Y-43332183D01*
X70999810Y-43484293D01*
X71020090Y-43507664D01*
X71024216Y-43511047D01*
X71024220Y-43511051D01*
X71121916Y-43591156D01*
X71203880Y-43658362D01*
X71208516Y-43661001D01*
X71208519Y-43661003D01*
X71307804Y-43717519D01*
X71410433Y-43775939D01*
X71633844Y-43857034D01*
X71639092Y-43857983D01*
X71863641Y-43898588D01*
X71863648Y-43898589D01*
X71867725Y-43899326D01*
X71885991Y-43900187D01*
X71891131Y-43900430D01*
X71891138Y-43900430D01*
X71892619Y-43900500D01*
X72059680Y-43900500D01*
X72142026Y-43893513D01*
X72231512Y-43885920D01*
X72231516Y-43885919D01*
X72236823Y-43885469D01*
X72241978Y-43884131D01*
X72241984Y-43884130D01*
X72461703Y-43827102D01*
X72461702Y-43827102D01*
X72466874Y-43825760D01*
X72583327Y-43773302D01*
X72642492Y-43746650D01*
X89400189Y-43746650D01*
X89411403Y-43750000D01*
X89504499Y-43750000D01*
X89519738Y-43745525D01*
X89520943Y-43744135D01*
X89522614Y-43736452D01*
X89522614Y-43731885D01*
X90022614Y-43731885D01*
X90027089Y-43747124D01*
X90028479Y-43748329D01*
X90036162Y-43750000D01*
X90133141Y-43750000D01*
X90146672Y-43746027D01*
X90147949Y-43737143D01*
X90177442Y-43672562D01*
X90239118Y-43633623D01*
X90262274Y-43627227D01*
X90263139Y-43626261D01*
X90265076Y-43617689D01*
X90265076Y-43614019D01*
X90765076Y-43614019D01*
X90769049Y-43627550D01*
X90774266Y-43628300D01*
X90838847Y-43657793D01*
X90877230Y-43717519D01*
X90881215Y-43736263D01*
X90882504Y-43745870D01*
X90896327Y-43750000D01*
X90989423Y-43750000D01*
X91004662Y-43745525D01*
X91005867Y-43744135D01*
X91007538Y-43736452D01*
X91007538Y-43731885D01*
X91507538Y-43731885D01*
X91512013Y-43747124D01*
X91513403Y-43748329D01*
X91521086Y-43750000D01*
X91618065Y-43750000D01*
X91631596Y-43746027D01*
X91632873Y-43737143D01*
X91662366Y-43672562D01*
X91724042Y-43633623D01*
X91747198Y-43627227D01*
X91748063Y-43626261D01*
X91750000Y-43617689D01*
X91750000Y-43614019D01*
X92250000Y-43614019D01*
X92253973Y-43627550D01*
X92259190Y-43628300D01*
X92323771Y-43657793D01*
X92362154Y-43717519D01*
X92366139Y-43736263D01*
X92367428Y-43745870D01*
X92381251Y-43750000D01*
X92474347Y-43750000D01*
X92489586Y-43745525D01*
X92490791Y-43744135D01*
X92492462Y-43736452D01*
X92492462Y-43731885D01*
X92992462Y-43731885D01*
X92996937Y-43747124D01*
X92998327Y-43748329D01*
X93006010Y-43750000D01*
X93102989Y-43750000D01*
X93116520Y-43746027D01*
X93117797Y-43737143D01*
X93147290Y-43672562D01*
X93208966Y-43633623D01*
X93232122Y-43627227D01*
X93232987Y-43626261D01*
X93234924Y-43617689D01*
X93234924Y-43614019D01*
X93734924Y-43614019D01*
X93738897Y-43627550D01*
X93744114Y-43628300D01*
X93808695Y-43657793D01*
X93847078Y-43717519D01*
X93851063Y-43736263D01*
X93852352Y-43745870D01*
X93866175Y-43750000D01*
X93959271Y-43750000D01*
X93974510Y-43745525D01*
X93975715Y-43744135D01*
X93977386Y-43736452D01*
X93977386Y-43731885D01*
X94477386Y-43731885D01*
X94481861Y-43747124D01*
X94483251Y-43748329D01*
X94490934Y-43750000D01*
X94587913Y-43750000D01*
X94598994Y-43746746D01*
X94594261Y-43736343D01*
X94532106Y-43664210D01*
X94518713Y-43652527D01*
X94492589Y-43635594D01*
X94479106Y-43631578D01*
X94477386Y-43639410D01*
X94477386Y-43731885D01*
X93977386Y-43731885D01*
X93977386Y-43643725D01*
X93973413Y-43630194D01*
X93968968Y-43629555D01*
X93904387Y-43600062D01*
X93866004Y-43540336D01*
X93864964Y-43523013D01*
X93859776Y-43510929D01*
X93854940Y-43507662D01*
X93854141Y-43507538D01*
X93753039Y-43507538D01*
X93737800Y-43512013D01*
X93736595Y-43513403D01*
X93734924Y-43521086D01*
X93734924Y-43614019D01*
X93234924Y-43614019D01*
X93234924Y-43525653D01*
X93230449Y-43510414D01*
X93229059Y-43509209D01*
X93221376Y-43507538D01*
X93125276Y-43507538D01*
X93111746Y-43511511D01*
X93110565Y-43519728D01*
X93081072Y-43584309D01*
X93020875Y-43622830D01*
X92995320Y-43630226D01*
X92994196Y-43631513D01*
X92992462Y-43639410D01*
X92992462Y-43731885D01*
X92492462Y-43731885D01*
X92492462Y-43643725D01*
X92488489Y-43630194D01*
X92484044Y-43629555D01*
X92419463Y-43600062D01*
X92381080Y-43540336D01*
X92380040Y-43523013D01*
X92374852Y-43510929D01*
X92370016Y-43507662D01*
X92369217Y-43507538D01*
X92268115Y-43507538D01*
X92252876Y-43512013D01*
X92251671Y-43513403D01*
X92250000Y-43521086D01*
X92250000Y-43614019D01*
X91750000Y-43614019D01*
X91750000Y-43525653D01*
X91745525Y-43510414D01*
X91744135Y-43509209D01*
X91736452Y-43507538D01*
X91640352Y-43507538D01*
X91626822Y-43511511D01*
X91625641Y-43519728D01*
X91596148Y-43584309D01*
X91535951Y-43622830D01*
X91510396Y-43630226D01*
X91509272Y-43631513D01*
X91507538Y-43639410D01*
X91507538Y-43731885D01*
X91007538Y-43731885D01*
X91007538Y-43643725D01*
X91003565Y-43630194D01*
X90999120Y-43629555D01*
X90934539Y-43600062D01*
X90896156Y-43540336D01*
X90895116Y-43523013D01*
X90889928Y-43510929D01*
X90885092Y-43507662D01*
X90884293Y-43507538D01*
X90783191Y-43507538D01*
X90767952Y-43512013D01*
X90766747Y-43513403D01*
X90765076Y-43521086D01*
X90765076Y-43614019D01*
X90265076Y-43614019D01*
X90265076Y-43525653D01*
X90260601Y-43510414D01*
X90259211Y-43509209D01*
X90251528Y-43507538D01*
X90155428Y-43507538D01*
X90141898Y-43511511D01*
X90140717Y-43519728D01*
X90111224Y-43584309D01*
X90051027Y-43622830D01*
X90025472Y-43630226D01*
X90024348Y-43631513D01*
X90022614Y-43639410D01*
X90022614Y-43731885D01*
X89522614Y-43731885D01*
X89522614Y-43643725D01*
X89518641Y-43630194D01*
X89518307Y-43630146D01*
X89511383Y-43632696D01*
X89485554Y-43648993D01*
X89472017Y-43660515D01*
X89404977Y-43736422D01*
X89400189Y-43746650D01*
X72642492Y-43746650D01*
X72678715Y-43730333D01*
X72678718Y-43730332D01*
X72683576Y-43728143D01*
X72880732Y-43595409D01*
X72885191Y-43591156D01*
X72958643Y-43521086D01*
X73052705Y-43431355D01*
X73194579Y-43240670D01*
X73302295Y-43028807D01*
X73309940Y-43004188D01*
X90142651Y-43004188D01*
X90153865Y-43007538D01*
X90246961Y-43007538D01*
X90262200Y-43003063D01*
X90263405Y-43001673D01*
X90265076Y-42993990D01*
X90265076Y-42989423D01*
X90765076Y-42989423D01*
X90769551Y-43004662D01*
X90770941Y-43005867D01*
X90778624Y-43007538D01*
X90875603Y-43007538D01*
X90889134Y-43003565D01*
X90890411Y-42994681D01*
X90919904Y-42930100D01*
X90981580Y-42891161D01*
X91004736Y-42884765D01*
X91005601Y-42883799D01*
X91007538Y-42875227D01*
X91007538Y-42871557D01*
X91507538Y-42871557D01*
X91511511Y-42885088D01*
X91516728Y-42885838D01*
X91581309Y-42915331D01*
X91619692Y-42975057D01*
X91623677Y-42993801D01*
X91624966Y-43003408D01*
X91638789Y-43007538D01*
X91731885Y-43007538D01*
X91747124Y-43003063D01*
X91748329Y-43001673D01*
X91750000Y-42993990D01*
X91750000Y-42989423D01*
X92250000Y-42989423D01*
X92254475Y-43004662D01*
X92255865Y-43005867D01*
X92263548Y-43007538D01*
X92360527Y-43007538D01*
X92374058Y-43003565D01*
X92375335Y-42994681D01*
X92404828Y-42930100D01*
X92466504Y-42891161D01*
X92489660Y-42884765D01*
X92490525Y-42883799D01*
X92492462Y-42875227D01*
X92492462Y-42871557D01*
X92992462Y-42871557D01*
X92996435Y-42885088D01*
X93001652Y-42885838D01*
X93066233Y-42915331D01*
X93104616Y-42975057D01*
X93108601Y-42993801D01*
X93109890Y-43003408D01*
X93123713Y-43007538D01*
X93216809Y-43007538D01*
X93232048Y-43003063D01*
X93233253Y-43001673D01*
X93234924Y-42993990D01*
X93234924Y-42989423D01*
X93734924Y-42989423D01*
X93739399Y-43004662D01*
X93740789Y-43005867D01*
X93748472Y-43007538D01*
X93845451Y-43007538D01*
X93856532Y-43004284D01*
X93851799Y-42993881D01*
X93789644Y-42921748D01*
X93776251Y-42910065D01*
X93750127Y-42893132D01*
X93736644Y-42889116D01*
X93734924Y-42896948D01*
X93734924Y-42989423D01*
X93234924Y-42989423D01*
X93234924Y-42901263D01*
X93230951Y-42887732D01*
X93226506Y-42887093D01*
X93161925Y-42857600D01*
X93123542Y-42797874D01*
X93122502Y-42780551D01*
X93117314Y-42768467D01*
X93112478Y-42765200D01*
X93111679Y-42765076D01*
X93010577Y-42765076D01*
X92995338Y-42769551D01*
X92994133Y-42770941D01*
X92992462Y-42778624D01*
X92992462Y-42871557D01*
X92492462Y-42871557D01*
X92492462Y-42783191D01*
X92487987Y-42767952D01*
X92486597Y-42766747D01*
X92478914Y-42765076D01*
X92382814Y-42765076D01*
X92369284Y-42769049D01*
X92368103Y-42777266D01*
X92338610Y-42841847D01*
X92278413Y-42880368D01*
X92252858Y-42887764D01*
X92251734Y-42889051D01*
X92250000Y-42896948D01*
X92250000Y-42989423D01*
X91750000Y-42989423D01*
X91750000Y-42901263D01*
X91746027Y-42887732D01*
X91741582Y-42887093D01*
X91677001Y-42857600D01*
X91638618Y-42797874D01*
X91637578Y-42780551D01*
X91632390Y-42768467D01*
X91627554Y-42765200D01*
X91626755Y-42765076D01*
X91525653Y-42765076D01*
X91510414Y-42769551D01*
X91509209Y-42770941D01*
X91507538Y-42778624D01*
X91507538Y-42871557D01*
X91007538Y-42871557D01*
X91007538Y-42783191D01*
X91003063Y-42767952D01*
X91001673Y-42766747D01*
X90993990Y-42765076D01*
X90897890Y-42765076D01*
X90884360Y-42769049D01*
X90883179Y-42777266D01*
X90853686Y-42841847D01*
X90793489Y-42880368D01*
X90767934Y-42887764D01*
X90766810Y-42889051D01*
X90765076Y-42896948D01*
X90765076Y-42989423D01*
X90265076Y-42989423D01*
X90265076Y-42901263D01*
X90261103Y-42887732D01*
X90260769Y-42887684D01*
X90253845Y-42890234D01*
X90228016Y-42906531D01*
X90214479Y-42918053D01*
X90147439Y-42993960D01*
X90142651Y-43004188D01*
X73309940Y-43004188D01*
X73371193Y-42806919D01*
X73372775Y-42801824D01*
X73385479Y-42705979D01*
X73403304Y-42571494D01*
X73403304Y-42571491D01*
X73404004Y-42566211D01*
X73401894Y-42509997D01*
X73395287Y-42334036D01*
X73395087Y-42328705D01*
X73381033Y-42261726D01*
X90885113Y-42261726D01*
X90896327Y-42265076D01*
X90989423Y-42265076D01*
X91004662Y-42260601D01*
X91005867Y-42259211D01*
X91007538Y-42251528D01*
X91007538Y-42246961D01*
X91507538Y-42246961D01*
X91512013Y-42262200D01*
X91513403Y-42263405D01*
X91521086Y-42265076D01*
X91618065Y-42265076D01*
X91631596Y-42261103D01*
X91632873Y-42252219D01*
X91662366Y-42187638D01*
X91724042Y-42148699D01*
X91747198Y-42142303D01*
X91748063Y-42141337D01*
X91750000Y-42132765D01*
X91750000Y-42129095D01*
X92250000Y-42129095D01*
X92253973Y-42142626D01*
X92259190Y-42143376D01*
X92323771Y-42172869D01*
X92362154Y-42232595D01*
X92366139Y-42251339D01*
X92367428Y-42260946D01*
X92381251Y-42265076D01*
X92474347Y-42265076D01*
X92489586Y-42260601D01*
X92490791Y-42259211D01*
X92492462Y-42251528D01*
X92492462Y-42246961D01*
X92992462Y-42246961D01*
X92996937Y-42262200D01*
X92998327Y-42263405D01*
X93006010Y-42265076D01*
X93102989Y-42265076D01*
X93114070Y-42261822D01*
X93109337Y-42251419D01*
X93047182Y-42179286D01*
X93033789Y-42167603D01*
X93007665Y-42150670D01*
X92994182Y-42146654D01*
X92992462Y-42154486D01*
X92992462Y-42246961D01*
X92492462Y-42246961D01*
X92492462Y-42158801D01*
X92488489Y-42145270D01*
X92484044Y-42144631D01*
X92419463Y-42115138D01*
X92381080Y-42055412D01*
X92380040Y-42038089D01*
X92374852Y-42026005D01*
X92370016Y-42022738D01*
X92369217Y-42022614D01*
X92268115Y-42022614D01*
X92252876Y-42027089D01*
X92251671Y-42028479D01*
X92250000Y-42036162D01*
X92250000Y-42129095D01*
X91750000Y-42129095D01*
X91750000Y-42040729D01*
X91745525Y-42025490D01*
X91744135Y-42024285D01*
X91736452Y-42022614D01*
X91640352Y-42022614D01*
X91626822Y-42026587D01*
X91625641Y-42034804D01*
X91596148Y-42099385D01*
X91535951Y-42137906D01*
X91510396Y-42145302D01*
X91509272Y-42146589D01*
X91507538Y-42154486D01*
X91507538Y-42246961D01*
X91007538Y-42246961D01*
X91007538Y-42158801D01*
X91003565Y-42145270D01*
X91003231Y-42145222D01*
X90996307Y-42147772D01*
X90970478Y-42164069D01*
X90956941Y-42175591D01*
X90889901Y-42251498D01*
X90885113Y-42261726D01*
X73381033Y-42261726D01*
X73346281Y-42096096D01*
X73330214Y-42055412D01*
X73260941Y-41880002D01*
X73260940Y-41880000D01*
X73258980Y-41875037D01*
X73216708Y-41805374D01*
X73138448Y-41676407D01*
X73135681Y-41671847D01*
X73119304Y-41652974D01*
X72983410Y-41496369D01*
X72983408Y-41496367D01*
X72979910Y-41492336D01*
X72975784Y-41488953D01*
X72975780Y-41488949D01*
X72831805Y-41370898D01*
X72796120Y-41341638D01*
X72791484Y-41338999D01*
X72791481Y-41338997D01*
X72662070Y-41265332D01*
X72589567Y-41224061D01*
X72366156Y-41142966D01*
X72307465Y-41132353D01*
X72136359Y-41101412D01*
X72136352Y-41101411D01*
X72132275Y-41100674D01*
X72114009Y-41099813D01*
X72108869Y-41099570D01*
X72108862Y-41099570D01*
X72107381Y-41099500D01*
X71940320Y-41099500D01*
X71857974Y-41106487D01*
X71768488Y-41114080D01*
X71768484Y-41114081D01*
X71763177Y-41114531D01*
X71758022Y-41115869D01*
X71758016Y-41115870D01*
X71646612Y-41144785D01*
X71533126Y-41174240D01*
X71454079Y-41209848D01*
X71321285Y-41269667D01*
X71321282Y-41269668D01*
X71316424Y-41271857D01*
X71312000Y-41274836D01*
X71311999Y-41274836D01*
X71289741Y-41289821D01*
X71119268Y-41404591D01*
X71115411Y-41408270D01*
X71115409Y-41408272D01*
X71068842Y-41452695D01*
X70947295Y-41568645D01*
X70805421Y-41759330D01*
X70697705Y-41971193D01*
X70696124Y-41976284D01*
X70696123Y-41976287D01*
X70651181Y-42121026D01*
X70627225Y-42198176D01*
X70626524Y-42203465D01*
X70598564Y-42414417D01*
X70595996Y-42433789D01*
X63973728Y-42433789D01*
X63961552Y-42309608D01*
X63906259Y-42126467D01*
X63890110Y-42096096D01*
X63819342Y-41963001D01*
X63819341Y-41962999D01*
X63816446Y-41957555D01*
X63700963Y-41815958D01*
X63699430Y-41814078D01*
X63699427Y-41814075D01*
X63695535Y-41809303D01*
X63662793Y-41782216D01*
X63552879Y-41691288D01*
X63548132Y-41687361D01*
X63405107Y-41610027D01*
X63354701Y-41560035D01*
X63339324Y-41490724D01*
X63363860Y-41424102D01*
X63408228Y-41386728D01*
X63481430Y-41349751D01*
X63525228Y-41327627D01*
X63554309Y-41304907D01*
X63621175Y-41252665D01*
X63675979Y-41209848D01*
X63697503Y-41184913D01*
X63796958Y-41069692D01*
X63796959Y-41069691D01*
X63800982Y-41065030D01*
X63818509Y-41034178D01*
X63860363Y-40960500D01*
X63895476Y-40898691D01*
X63955861Y-40717166D01*
X63966136Y-40635832D01*
X63979396Y-40530872D01*
X63979397Y-40530863D01*
X63979838Y-40527369D01*
X63980220Y-40500000D01*
X63961552Y-40309608D01*
X63906259Y-40126467D01*
X63878340Y-40073960D01*
X63819342Y-39963001D01*
X63819341Y-39962999D01*
X63816446Y-39957555D01*
X63751872Y-39878379D01*
X63699430Y-39814078D01*
X63699427Y-39814075D01*
X63695535Y-39809303D01*
X63644858Y-39767379D01*
X63552879Y-39691288D01*
X63548132Y-39687361D01*
X63405107Y-39610027D01*
X63354701Y-39560035D01*
X63339324Y-39490724D01*
X63363860Y-39424102D01*
X63408228Y-39386728D01*
X63449357Y-39365952D01*
X63525228Y-39327627D01*
X63554309Y-39304907D01*
X63610014Y-39261385D01*
X63675979Y-39209848D01*
X63692551Y-39190650D01*
X63796958Y-39069692D01*
X63796959Y-39069691D01*
X63800982Y-39065030D01*
X63895476Y-38898691D01*
X63955861Y-38717166D01*
X63978706Y-38536330D01*
X63979396Y-38530872D01*
X63979397Y-38530863D01*
X63979838Y-38527369D01*
X63980220Y-38500000D01*
X63961552Y-38309608D01*
X63906259Y-38126467D01*
X63894882Y-38105070D01*
X63819342Y-37963001D01*
X63819341Y-37962999D01*
X63816446Y-37957555D01*
X63740536Y-37864480D01*
X63699430Y-37814078D01*
X63699427Y-37814075D01*
X63695535Y-37809303D01*
X63548132Y-37687361D01*
X63405107Y-37610027D01*
X63354701Y-37560035D01*
X63339324Y-37490724D01*
X63363860Y-37424102D01*
X63408228Y-37386728D01*
X63476124Y-37352431D01*
X63525228Y-37327627D01*
X63552110Y-37306625D01*
X63637464Y-37239939D01*
X63675979Y-37209848D01*
X63695352Y-37187405D01*
X63796958Y-37069692D01*
X63796959Y-37069691D01*
X63800982Y-37065030D01*
X63808808Y-37051255D01*
X63892429Y-36904054D01*
X63895476Y-36898691D01*
X63955861Y-36717166D01*
X63976579Y-36553168D01*
X63979396Y-36530872D01*
X63979397Y-36530863D01*
X63979838Y-36527369D01*
X63980220Y-36500000D01*
X63961552Y-36309608D01*
X63906259Y-36126467D01*
X63896682Y-36108455D01*
X63831387Y-35985654D01*
X63817067Y-35916116D01*
X63842614Y-35849876D01*
X63899919Y-35807963D01*
X63942638Y-35800500D01*
X120058256Y-35800500D01*
X120126377Y-35820502D01*
G37*
G04 #@! TD.AperFunction*
M02*
