M48
; DRILL file {KiCad (6.0.10)} date Sat Feb  4 17:17:53 2023
; FORMAT={-:-/ absolute / metric / decimal}
; #@! TF.CreationDate,2023-02-04T17:17:53+01:00
; #@! TF.GenerationSoftware,Kicad,Pcbnew,(6.0.10)
; #@! TF.FileFunction,Plated,1,2,PTH
FMAT,2
METRIC
; #@! TA.AperFunction,Plated,PTH,ViaDrill
T1C0.300
; #@! TA.AperFunction,Plated,PTH,ComponentDrill
T2C0.300
; #@! TA.AperFunction,Plated,PTH,ComponentDrill
T3C0.800
%
G90
G05
T1
X80.82Y-43.48
X81.92Y-44.58
X83.75Y-40.929
X87.972Y-47.522
X90.0Y-37.0
X91.25Y-38.75
X95.04Y-38.76
X97.0Y-37.0
X97.61Y-43.83
X97.682Y-39.805
X99.006Y-41.934
X99.13Y-40.16
X100.12Y-42.16
X100.29Y-36.49
X102.1Y-44.33
X102.61Y-36.66
X105.5Y-36.5
X107.5Y-38.0
X107.75Y-40.75
X114.94Y-43.19
X115.7Y-37.029
T2
X89.773Y-44.0
X90.515Y-43.258
X90.515Y-44.742
X91.258Y-42.515
X91.258Y-44.0
X91.258Y-45.485
X92.0Y-41.773
X92.0Y-43.258
X92.0Y-44.742
X92.0Y-46.227
X92.742Y-42.515
X92.742Y-44.0
X92.742Y-45.485
X93.485Y-43.258
X93.485Y-44.742
X94.227Y-44.0
T3
X63.0Y-36.5
X63.0Y-38.5
X63.0Y-40.5
X63.0Y-42.5
X63.0Y-44.5
X63.0Y-46.5
X63.0Y-54.5
X65.0Y-54.5
X67.0Y-54.5
X69.0Y-54.5
X71.0Y-54.5
X73.0Y-54.5
X75.0Y-54.5
X77.0Y-54.5
X79.0Y-54.5
X81.0Y-54.5
X83.0Y-54.5
X85.0Y-54.5
X87.0Y-54.5
X89.0Y-54.5
X91.0Y-54.5
X93.0Y-54.5
X95.0Y-54.5
X97.0Y-54.5
X99.0Y-54.5
X101.0Y-54.5
X103.0Y-54.5
X105.0Y-54.5
X107.0Y-54.5
X109.0Y-54.5
X111.0Y-54.5
X113.0Y-54.5
X115.0Y-54.5
X117.0Y-54.5
X119.0Y-54.5
X121.0Y-36.5
X121.0Y-38.5
X121.0Y-40.5
X121.0Y-42.5
X121.0Y-44.5
X121.0Y-46.5
X121.0Y-54.5
T0
M30
