%TF.GenerationSoftware,KiCad,Pcbnew,(6.0.10)*%
%TF.CreationDate,2023-02-04T17:17:54+01:00*%
%TF.ProjectId,Lumissil_IS31FL3742A_breakout,4c756d69-7373-4696-9c5f-49533331464c,rev?*%
%TF.SameCoordinates,Original*%
%TF.FileFunction,Drillmap*%
%TF.FilePolarity,Positive*%
%FSLAX45Y45*%
G04 Gerber Fmt 4.5, Leading zero omitted, Abs format (unit mm)*
G04 Created by KiCad (PCBNEW (6.0.10)) date 2023-02-04 17:17:54*
%MOMM*%
%LPD*%
G01*
G04 APERTURE LIST*
%ADD10C,0.100000*%
%ADD11C,0.200000*%
%ADD12C,0.220000*%
G04 APERTURE END LIST*
D10*
X6250000Y-3550000D02*
X12150000Y-3550000D01*
X6250000Y-3550000D02*
G75*
G03*
X6200000Y-3600000I0J-50000D01*
G01*
X6200000Y-5500000D02*
G75*
G03*
X6250000Y-5550000I50000J0D01*
G01*
X6200000Y-5500000D02*
X6200000Y-3600000D01*
X12150000Y-5550000D02*
X6250000Y-5550000D01*
X12200000Y-3600000D02*
X12200000Y-5500000D01*
X12200000Y-3600000D02*
G75*
G03*
X12150000Y-3550000I-50000J0D01*
G01*
X12150000Y-5550000D02*
G75*
G03*
X12200000Y-5500000I0J50000D01*
G01*
D11*
D12*
X7090000Y-4140000D02*
X7310000Y-4360000D01*
X7310000Y-4140000D02*
X7090000Y-4360000D01*
X11090000Y-4140000D02*
X11310000Y-4360000D01*
X11310000Y-4140000D02*
X11090000Y-4360000D01*
D11*
X6452619Y-5865476D02*
X6452619Y-5665476D01*
X6500238Y-5665476D01*
X6528809Y-5675000D01*
X6547857Y-5694048D01*
X6557381Y-5713095D01*
X6566905Y-5751190D01*
X6566905Y-5779762D01*
X6557381Y-5817857D01*
X6547857Y-5836905D01*
X6528809Y-5855952D01*
X6500238Y-5865476D01*
X6452619Y-5865476D01*
X6652619Y-5865476D02*
X6652619Y-5732143D01*
X6652619Y-5770238D02*
X6662143Y-5751190D01*
X6671667Y-5741667D01*
X6690714Y-5732143D01*
X6709762Y-5732143D01*
X6776428Y-5865476D02*
X6776428Y-5732143D01*
X6776428Y-5665476D02*
X6766905Y-5675000D01*
X6776428Y-5684524D01*
X6785952Y-5675000D01*
X6776428Y-5665476D01*
X6776428Y-5684524D01*
X6900238Y-5865476D02*
X6881190Y-5855952D01*
X6871667Y-5836905D01*
X6871667Y-5665476D01*
X7005000Y-5865476D02*
X6985952Y-5855952D01*
X6976428Y-5836905D01*
X6976428Y-5665476D01*
X7233571Y-5865476D02*
X7233571Y-5665476D01*
X7300238Y-5808333D01*
X7366905Y-5665476D01*
X7366905Y-5865476D01*
X7547857Y-5865476D02*
X7547857Y-5760714D01*
X7538333Y-5741667D01*
X7519286Y-5732143D01*
X7481190Y-5732143D01*
X7462143Y-5741667D01*
X7547857Y-5855952D02*
X7528809Y-5865476D01*
X7481190Y-5865476D01*
X7462143Y-5855952D01*
X7452619Y-5836905D01*
X7452619Y-5817857D01*
X7462143Y-5798809D01*
X7481190Y-5789286D01*
X7528809Y-5789286D01*
X7547857Y-5779762D01*
X7643095Y-5732143D02*
X7643095Y-5932143D01*
X7643095Y-5741667D02*
X7662143Y-5732143D01*
X7700238Y-5732143D01*
X7719286Y-5741667D01*
X7728809Y-5751190D01*
X7738333Y-5770238D01*
X7738333Y-5827381D01*
X7728809Y-5846428D01*
X7719286Y-5855952D01*
X7700238Y-5865476D01*
X7662143Y-5865476D01*
X7643095Y-5855952D01*
X7824048Y-5846428D02*
X7833571Y-5855952D01*
X7824048Y-5865476D01*
X7814524Y-5855952D01*
X7824048Y-5846428D01*
X7824048Y-5865476D01*
X7824048Y-5741667D02*
X7833571Y-5751190D01*
X7824048Y-5760714D01*
X7814524Y-5751190D01*
X7824048Y-5741667D01*
X7824048Y-5760714D01*
X5995000Y-6095000D02*
X6195000Y-6295000D01*
X6195000Y-6095000D02*
X5995000Y-6295000D01*
X6443095Y-6104524D02*
X6452619Y-6095000D01*
X6471667Y-6085476D01*
X6519286Y-6085476D01*
X6538333Y-6095000D01*
X6547857Y-6104524D01*
X6557381Y-6123571D01*
X6557381Y-6142619D01*
X6547857Y-6171190D01*
X6433571Y-6285476D01*
X6557381Y-6285476D01*
X6643095Y-6266428D02*
X6652619Y-6275952D01*
X6643095Y-6285476D01*
X6633571Y-6275952D01*
X6643095Y-6266428D01*
X6643095Y-6285476D01*
X6728809Y-6104524D02*
X6738333Y-6095000D01*
X6757381Y-6085476D01*
X6805000Y-6085476D01*
X6824048Y-6095000D01*
X6833571Y-6104524D01*
X6843095Y-6123571D01*
X6843095Y-6142619D01*
X6833571Y-6171190D01*
X6719286Y-6285476D01*
X6843095Y-6285476D01*
X6966905Y-6085476D02*
X6985952Y-6085476D01*
X7005000Y-6095000D01*
X7014524Y-6104524D01*
X7024048Y-6123571D01*
X7033571Y-6161667D01*
X7033571Y-6209286D01*
X7024048Y-6247381D01*
X7014524Y-6266428D01*
X7005000Y-6275952D01*
X6985952Y-6285476D01*
X6966905Y-6285476D01*
X6947857Y-6275952D01*
X6938333Y-6266428D01*
X6928809Y-6247381D01*
X6919286Y-6209286D01*
X6919286Y-6161667D01*
X6928809Y-6123571D01*
X6938333Y-6104524D01*
X6947857Y-6095000D01*
X6966905Y-6085476D01*
X7157381Y-6085476D02*
X7176428Y-6085476D01*
X7195476Y-6095000D01*
X7205000Y-6104524D01*
X7214524Y-6123571D01*
X7224048Y-6161667D01*
X7224048Y-6209286D01*
X7214524Y-6247381D01*
X7205000Y-6266428D01*
X7195476Y-6275952D01*
X7176428Y-6285476D01*
X7157381Y-6285476D01*
X7138333Y-6275952D01*
X7128809Y-6266428D01*
X7119286Y-6247381D01*
X7109762Y-6209286D01*
X7109762Y-6161667D01*
X7119286Y-6123571D01*
X7128809Y-6104524D01*
X7138333Y-6095000D01*
X7157381Y-6085476D01*
X7309762Y-6285476D02*
X7309762Y-6152143D01*
X7309762Y-6171190D02*
X7319286Y-6161667D01*
X7338333Y-6152143D01*
X7366905Y-6152143D01*
X7385952Y-6161667D01*
X7395476Y-6180714D01*
X7395476Y-6285476D01*
X7395476Y-6180714D02*
X7405000Y-6161667D01*
X7424048Y-6152143D01*
X7452619Y-6152143D01*
X7471667Y-6161667D01*
X7481190Y-6180714D01*
X7481190Y-6285476D01*
X7576428Y-6285476D02*
X7576428Y-6152143D01*
X7576428Y-6171190D02*
X7585952Y-6161667D01*
X7605000Y-6152143D01*
X7633571Y-6152143D01*
X7652619Y-6161667D01*
X7662143Y-6180714D01*
X7662143Y-6285476D01*
X7662143Y-6180714D02*
X7671667Y-6161667D01*
X7690714Y-6152143D01*
X7719286Y-6152143D01*
X7738333Y-6161667D01*
X7747857Y-6180714D01*
X7747857Y-6285476D01*
X8138333Y-6075952D02*
X7966905Y-6333095D01*
X8395476Y-6085476D02*
X8414524Y-6085476D01*
X8433571Y-6095000D01*
X8443095Y-6104524D01*
X8452619Y-6123571D01*
X8462143Y-6161667D01*
X8462143Y-6209286D01*
X8452619Y-6247381D01*
X8443095Y-6266428D01*
X8433571Y-6275952D01*
X8414524Y-6285476D01*
X8395476Y-6285476D01*
X8376428Y-6275952D01*
X8366905Y-6266428D01*
X8357381Y-6247381D01*
X8347857Y-6209286D01*
X8347857Y-6161667D01*
X8357381Y-6123571D01*
X8366905Y-6104524D01*
X8376428Y-6095000D01*
X8395476Y-6085476D01*
X8547857Y-6266428D02*
X8557381Y-6275952D01*
X8547857Y-6285476D01*
X8538333Y-6275952D01*
X8547857Y-6266428D01*
X8547857Y-6285476D01*
X8681190Y-6085476D02*
X8700238Y-6085476D01*
X8719286Y-6095000D01*
X8728810Y-6104524D01*
X8738333Y-6123571D01*
X8747857Y-6161667D01*
X8747857Y-6209286D01*
X8738333Y-6247381D01*
X8728810Y-6266428D01*
X8719286Y-6275952D01*
X8700238Y-6285476D01*
X8681190Y-6285476D01*
X8662143Y-6275952D01*
X8652619Y-6266428D01*
X8643095Y-6247381D01*
X8633571Y-6209286D01*
X8633571Y-6161667D01*
X8643095Y-6123571D01*
X8652619Y-6104524D01*
X8662143Y-6095000D01*
X8681190Y-6085476D01*
X8862143Y-6171190D02*
X8843095Y-6161667D01*
X8833571Y-6152143D01*
X8824048Y-6133095D01*
X8824048Y-6123571D01*
X8833571Y-6104524D01*
X8843095Y-6095000D01*
X8862143Y-6085476D01*
X8900238Y-6085476D01*
X8919286Y-6095000D01*
X8928810Y-6104524D01*
X8938333Y-6123571D01*
X8938333Y-6133095D01*
X8928810Y-6152143D01*
X8919286Y-6161667D01*
X8900238Y-6171190D01*
X8862143Y-6171190D01*
X8843095Y-6180714D01*
X8833571Y-6190238D01*
X8824048Y-6209286D01*
X8824048Y-6247381D01*
X8833571Y-6266428D01*
X8843095Y-6275952D01*
X8862143Y-6285476D01*
X8900238Y-6285476D01*
X8919286Y-6275952D01*
X8928810Y-6266428D01*
X8938333Y-6247381D01*
X8938333Y-6209286D01*
X8928810Y-6190238D01*
X8919286Y-6180714D01*
X8900238Y-6171190D01*
X9109762Y-6085476D02*
X9071667Y-6085476D01*
X9052619Y-6095000D01*
X9043095Y-6104524D01*
X9024048Y-6133095D01*
X9014524Y-6171190D01*
X9014524Y-6247381D01*
X9024048Y-6266428D01*
X9033571Y-6275952D01*
X9052619Y-6285476D01*
X9090714Y-6285476D01*
X9109762Y-6275952D01*
X9119286Y-6266428D01*
X9128810Y-6247381D01*
X9128810Y-6199762D01*
X9119286Y-6180714D01*
X9109762Y-6171190D01*
X9090714Y-6161667D01*
X9052619Y-6161667D01*
X9033571Y-6171190D01*
X9024048Y-6180714D01*
X9014524Y-6199762D01*
X9300238Y-6085476D02*
X9262143Y-6085476D01*
X9243095Y-6095000D01*
X9233571Y-6104524D01*
X9214524Y-6133095D01*
X9205000Y-6171190D01*
X9205000Y-6247381D01*
X9214524Y-6266428D01*
X9224048Y-6275952D01*
X9243095Y-6285476D01*
X9281190Y-6285476D01*
X9300238Y-6275952D01*
X9309762Y-6266428D01*
X9319286Y-6247381D01*
X9319286Y-6199762D01*
X9309762Y-6180714D01*
X9300238Y-6171190D01*
X9281190Y-6161667D01*
X9243095Y-6161667D01*
X9224048Y-6171190D01*
X9214524Y-6180714D01*
X9205000Y-6199762D01*
X9395476Y-6085476D02*
X9395476Y-6123571D01*
X9471667Y-6085476D02*
X9471667Y-6123571D01*
X9766905Y-6361667D02*
X9757381Y-6352143D01*
X9738333Y-6323571D01*
X9728810Y-6304524D01*
X9719286Y-6275952D01*
X9709762Y-6228333D01*
X9709762Y-6190238D01*
X9719286Y-6142619D01*
X9728810Y-6114048D01*
X9738333Y-6095000D01*
X9757381Y-6066428D01*
X9766905Y-6056905D01*
X9833571Y-6104524D02*
X9843095Y-6095000D01*
X9862143Y-6085476D01*
X9909762Y-6085476D01*
X9928810Y-6095000D01*
X9938333Y-6104524D01*
X9947857Y-6123571D01*
X9947857Y-6142619D01*
X9938333Y-6171190D01*
X9824048Y-6285476D01*
X9947857Y-6285476D01*
X10185952Y-6285476D02*
X10185952Y-6085476D01*
X10271667Y-6285476D02*
X10271667Y-6180714D01*
X10262143Y-6161667D01*
X10243095Y-6152143D01*
X10214524Y-6152143D01*
X10195476Y-6161667D01*
X10185952Y-6171190D01*
X10395476Y-6285476D02*
X10376429Y-6275952D01*
X10366905Y-6266428D01*
X10357381Y-6247381D01*
X10357381Y-6190238D01*
X10366905Y-6171190D01*
X10376429Y-6161667D01*
X10395476Y-6152143D01*
X10424048Y-6152143D01*
X10443095Y-6161667D01*
X10452619Y-6171190D01*
X10462143Y-6190238D01*
X10462143Y-6247381D01*
X10452619Y-6266428D01*
X10443095Y-6275952D01*
X10424048Y-6285476D01*
X10395476Y-6285476D01*
X10576429Y-6285476D02*
X10557381Y-6275952D01*
X10547857Y-6256905D01*
X10547857Y-6085476D01*
X10728810Y-6275952D02*
X10709762Y-6285476D01*
X10671667Y-6285476D01*
X10652619Y-6275952D01*
X10643095Y-6256905D01*
X10643095Y-6180714D01*
X10652619Y-6161667D01*
X10671667Y-6152143D01*
X10709762Y-6152143D01*
X10728810Y-6161667D01*
X10738333Y-6180714D01*
X10738333Y-6199762D01*
X10643095Y-6218809D01*
X10814524Y-6275952D02*
X10833571Y-6285476D01*
X10871667Y-6285476D01*
X10890714Y-6275952D01*
X10900238Y-6256905D01*
X10900238Y-6247381D01*
X10890714Y-6228333D01*
X10871667Y-6218809D01*
X10843095Y-6218809D01*
X10824048Y-6209286D01*
X10814524Y-6190238D01*
X10814524Y-6180714D01*
X10824048Y-6161667D01*
X10843095Y-6152143D01*
X10871667Y-6152143D01*
X10890714Y-6161667D01*
X10966905Y-6361667D02*
X10976429Y-6352143D01*
X10995476Y-6323571D01*
X11005000Y-6304524D01*
X11014524Y-6275952D01*
X11024048Y-6228333D01*
X11024048Y-6190238D01*
X11014524Y-6142619D01*
X11005000Y-6114048D01*
X10995476Y-6095000D01*
X10976429Y-6066428D01*
X10966905Y-6056905D01*
X11328809Y-6361667D02*
X11319286Y-6352143D01*
X11300238Y-6323571D01*
X11290714Y-6304524D01*
X11281190Y-6275952D01*
X11271667Y-6228333D01*
X11271667Y-6190238D01*
X11281190Y-6142619D01*
X11290714Y-6114048D01*
X11300238Y-6095000D01*
X11319286Y-6066428D01*
X11328809Y-6056905D01*
X11405000Y-6152143D02*
X11405000Y-6285476D01*
X11405000Y-6171190D02*
X11414524Y-6161667D01*
X11433571Y-6152143D01*
X11462143Y-6152143D01*
X11481190Y-6161667D01*
X11490714Y-6180714D01*
X11490714Y-6285476D01*
X11614524Y-6285476D02*
X11595476Y-6275952D01*
X11585952Y-6266428D01*
X11576428Y-6247381D01*
X11576428Y-6190238D01*
X11585952Y-6171190D01*
X11595476Y-6161667D01*
X11614524Y-6152143D01*
X11643095Y-6152143D01*
X11662143Y-6161667D01*
X11671667Y-6171190D01*
X11681190Y-6190238D01*
X11681190Y-6247381D01*
X11671667Y-6266428D01*
X11662143Y-6275952D01*
X11643095Y-6285476D01*
X11614524Y-6285476D01*
X11738333Y-6152143D02*
X11814524Y-6152143D01*
X11766905Y-6085476D02*
X11766905Y-6256905D01*
X11776428Y-6275952D01*
X11795476Y-6285476D01*
X11814524Y-6285476D01*
X12033571Y-6152143D02*
X12033571Y-6352143D01*
X12033571Y-6161667D02*
X12052619Y-6152143D01*
X12090714Y-6152143D01*
X12109762Y-6161667D01*
X12119286Y-6171190D01*
X12128809Y-6190238D01*
X12128809Y-6247381D01*
X12119286Y-6266428D01*
X12109762Y-6275952D01*
X12090714Y-6285476D01*
X12052619Y-6285476D01*
X12033571Y-6275952D01*
X12243095Y-6285476D02*
X12224048Y-6275952D01*
X12214524Y-6256905D01*
X12214524Y-6085476D01*
X12405000Y-6285476D02*
X12405000Y-6180714D01*
X12395476Y-6161667D01*
X12376428Y-6152143D01*
X12338333Y-6152143D01*
X12319286Y-6161667D01*
X12405000Y-6275952D02*
X12385952Y-6285476D01*
X12338333Y-6285476D01*
X12319286Y-6275952D01*
X12309762Y-6256905D01*
X12309762Y-6237857D01*
X12319286Y-6218809D01*
X12338333Y-6209286D01*
X12385952Y-6209286D01*
X12405000Y-6199762D01*
X12471667Y-6152143D02*
X12547857Y-6152143D01*
X12500238Y-6085476D02*
X12500238Y-6256905D01*
X12509762Y-6275952D01*
X12528809Y-6285476D01*
X12547857Y-6285476D01*
X12690714Y-6275952D02*
X12671667Y-6285476D01*
X12633571Y-6285476D01*
X12614524Y-6275952D01*
X12605000Y-6256905D01*
X12605000Y-6180714D01*
X12614524Y-6161667D01*
X12633571Y-6152143D01*
X12671667Y-6152143D01*
X12690714Y-6161667D01*
X12700238Y-6180714D01*
X12700238Y-6199762D01*
X12605000Y-6218809D01*
X12871667Y-6285476D02*
X12871667Y-6085476D01*
X12871667Y-6275952D02*
X12852619Y-6285476D01*
X12814524Y-6285476D01*
X12795476Y-6275952D01*
X12785952Y-6266428D01*
X12776428Y-6247381D01*
X12776428Y-6190238D01*
X12785952Y-6171190D01*
X12795476Y-6161667D01*
X12814524Y-6152143D01*
X12852619Y-6152143D01*
X12871667Y-6161667D01*
X12947857Y-6361667D02*
X12957381Y-6352143D01*
X12976428Y-6323571D01*
X12985952Y-6304524D01*
X12995476Y-6275952D01*
X13005000Y-6228333D01*
X13005000Y-6190238D01*
X12995476Y-6142619D01*
X12985952Y-6114048D01*
X12976428Y-6095000D01*
X12957381Y-6066428D01*
X12947857Y-6056905D01*
M02*
