G04 #@! TF.GenerationSoftware,KiCad,Pcbnew,(6.0.10)*
G04 #@! TF.CreationDate,2023-02-04T17:17:42+01:00*
G04 #@! TF.ProjectId,Lumissil_IS31FL3742A_breakout,4c756d69-7373-4696-9c5f-49533331464c,rev?*
G04 #@! TF.SameCoordinates,Original*
G04 #@! TF.FileFunction,Soldermask,Bot*
G04 #@! TF.FilePolarity,Negative*
%FSLAX46Y46*%
G04 Gerber Fmt 4.6, Leading zero omitted, Abs format (unit mm)*
G04 Created by KiCad (PCBNEW (6.0.10)) date 2023-02-04 17:17:42*
%MOMM*%
%LPD*%
G01*
G04 APERTURE LIST*
G04 Aperture macros list*
%AMFreePoly0*
4,1,6,1.000000,0.000000,0.500000,-0.750000,-0.500000,-0.750000,-0.500000,0.750000,0.500000,0.750000,1.000000,0.000000,1.000000,0.000000,$1*%
%AMFreePoly1*
4,1,6,0.500000,-0.750000,-0.650000,-0.750000,-0.150000,0.000000,-0.650000,0.750000,0.500000,0.750000,0.500000,-0.750000,0.500000,-0.750000,$1*%
G04 Aperture macros list end*
%ADD10C,1.350000*%
%ADD11O,1.350000X1.350000*%
%ADD12C,2.200000*%
%ADD13FreePoly0,90.000000*%
%ADD14FreePoly1,90.000000*%
G04 APERTURE END LIST*
D10*
X121000000Y-36500000D03*
D11*
X121000000Y-38500000D03*
X121000000Y-40500000D03*
X121000000Y-42500000D03*
X121000000Y-44500000D03*
X121000000Y-46500000D03*
D10*
X63000000Y-54500000D03*
D11*
X65000000Y-54500000D03*
X67000000Y-54500000D03*
X69000000Y-54500000D03*
X71000000Y-54500000D03*
X73000000Y-54500000D03*
X75000000Y-54500000D03*
X77000000Y-54500000D03*
X79000000Y-54500000D03*
X81000000Y-54500000D03*
X83000000Y-54500000D03*
X85000000Y-54500000D03*
X87000000Y-54500000D03*
X89000000Y-54500000D03*
X91000000Y-54500000D03*
X93000000Y-54500000D03*
X95000000Y-54500000D03*
X97000000Y-54500000D03*
X99000000Y-54500000D03*
X101000000Y-54500000D03*
X103000000Y-54500000D03*
X105000000Y-54500000D03*
X107000000Y-54500000D03*
X109000000Y-54500000D03*
X111000000Y-54500000D03*
X113000000Y-54500000D03*
X115000000Y-54500000D03*
X117000000Y-54500000D03*
X119000000Y-54500000D03*
X121000000Y-54500000D03*
D12*
X112000000Y-42500000D03*
X72000000Y-42500000D03*
D10*
X63000000Y-36500000D03*
D11*
X63000000Y-38500000D03*
X63000000Y-40500000D03*
X63000000Y-42500000D03*
X63000000Y-44500000D03*
X63000000Y-46500000D03*
D13*
X114430000Y-39475000D03*
D14*
X114430000Y-38025000D03*
D13*
X117020000Y-39475000D03*
D14*
X117020000Y-38025000D03*
D13*
X111840000Y-39475000D03*
D14*
X111840000Y-38025000D03*
D13*
X109250000Y-39475000D03*
D14*
X109250000Y-38025000D03*
M02*
